<svg width="30" height="31" viewBox="0 0 30 31" fill="none" xmlns="http://www.w3.org/2000/svg">
<g clip-path="url(#clip0_475_902)">
<path d="M28.2263 7.51369L22.9908 2.27825C21.8535 1.14089 20.3144 0.5 18.7077 0.5H11.3059C9.69911 0.5 8.15556 1.13638 7.0182 2.27373L1.77825 7.50918C0.640891 8.64653 0 10.1856 0 11.7968V19.1987C0 20.8054 0.636377 22.349 1.77373 23.4863L7.00918 28.7218C8.14653 29.8591 9.68557 30.5 11.2968 30.5H18.6987C20.3054 30.5 21.849 29.8636 22.9863 28.7263L28.2218 23.4908C29.3591 22.3535 30 20.8144 30 19.2032V11.8013C30 10.1946 29.3636 8.65104 28.2263 7.51369ZM18.2699 23.6443L17.954 23.1839L13.8784 17.2624L8.39476 23.6443H7.04077L13.2782 16.3869L8.2052 9.01662L7.06334 7.35572H11.7527L12.0686 7.81608L15.8824 13.3584L19.8902 8.69618L21.0501 7.35572H22.4041L16.4916 14.234L21.8264 21.9834L22.9683 23.6443H18.2789H18.2699Z" fill="white"/>
<path d="M15.1647 14.189L11.1885 8.4165H9.07626L13.9913 15.5566L14.5915 16.4321L18.8295 22.5838H20.9418L15.7695 15.0646L15.1647 14.189Z" fill="white"/>
</g>
<defs>
<clipPath id="clip0_475_902">
<rect width="30" height="30" fill="white" transform="translate(0 0.5)"/>
</clipPath>
</defs>
</svg>
