<svg width="100" height="101" viewBox="0 0 100 101" fill="none" xmlns="http://www.w3.org/2000/svg">
<g clip-path="url(#clip0_448_615)">
<path d="M52.2865 51.3218L87 16.9406C83.6883 13.2723 79.8246 10.1089 75.5581 7.55446L31.357 51.3218H10.4424L60.5957 1.64356C57.1497 0.90099 53.5844 0.5 49.9146 0.5C22.3467 0.5 3.08202e-07 22.7475 6.88413e-07 50.1931C8.16385e-07 59.4307 2.53601 68.0891 6.95165 75.5L31.3719 51.3218H52.2865Z" fill="white"/>
<path d="M73.2407 51.535H52.1994L16 87.4467C19.737 90.8297 23.9843 93.6739 28.6068 95.8295L73.2407 51.55H94.2669L45.1456 100.29C46.6764 100.425 48.2223 100.5 49.7831 100.5C77.518 100.5 100 78.0758 100 50.4123C100 42.9425 98.3641 35.862 95.4225 29.5L73.2106 51.535H73.2407Z" fill="white"/>
<path d="M30.8774 51.5L75 7.44918C70.4433 4.71375 65.425 2.68087 60.0641 1.5L10 51.5H30.8774Z" fill="black"/>
<path d="M52 51.5H73.4046L96 29.2451C93.8321 24.5734 90.9618 20.2797 87.5267 16.5L52 51.5Z" fill="black"/>
<path d="M51.9852 51.5H31.2319L7 75.9302C9.51645 80.237 12.6546 84.1386 16.2961 87.5L52 51.5H51.9852Z" fill="black"/>
<path d="M93.9703 51.5H73.175L29 96.0154C34.0503 98.4082 39.5759 99.9582 45.3837 100.5L94 51.515H93.9851L93.9703 51.5Z" fill="black"/>
</g>
<defs>
<clipPath id="clip0_448_615">
<rect width="100" height="100" fill="white" transform="translate(0 0.5)"/>
</clipPath>
</defs>
</svg>
