<svg width="100" height="100" viewBox="0 0 100 100" fill="none" xmlns="http://www.w3.org/2000/svg">
<g clip-path="url(#clip0_448_45)">
<path d="M46.9448 0L46.9448 54.8735C46.9448 65.037 38.7392 73.2881 28.6319 73.2881H24L24 0L46.9448 0Z" fill="url(#paint0_linear_448_45)"/>
<path d="M35.4724 100C41.8084 100 46.9448 94.8351 46.9448 88.4639C46.9448 82.0927 41.8084 76.9278 35.4724 76.9278C29.1364 76.9278 24 82.0927 24 88.4639C24 94.8351 29.1364 100 35.4724 100Z" fill="url(#paint1_linear_448_45)"/>
<path d="M69.7515 63.4947C69.7515 54.087 62.1595 46.4528 52.8037 46.4528L52.8036 26.9895C72.8497 26.9895 89.1073 43.3374 89.1073 63.4947C89.1073 83.6521 72.8497 100 52.8037 100L52.8037 80.5367C62.1595 80.5367 69.7515 72.9025 69.7515 63.4947Z" fill="url(#paint2_linear_448_45)"/>
</g>
<defs>
<linearGradient id="paint0_linear_448_45" x1="35.4724" y1="-21.9618" x2="35.4724" y2="75.4164" gradientUnits="userSpaceOnUse">
<stop offset="0.32" stop-color="#0941D4"/>
<stop offset="0.54" stop-color="#6286E3"/>
<stop offset="0.81" stop-color="#CED9F6"/>
<stop offset="0.94" stop-color="#FAFBFE"/>
</linearGradient>
<linearGradient id="paint1_linear_448_45" x1="46.6074" y1="88.4022" x2="24.1687" y2="88.5242" gradientUnits="userSpaceOnUse">
<stop stop-color="#FAFBFE"/>
<stop offset="1" stop-color="#0941D4"/>
</linearGradient>
<linearGradient id="paint2_linear_448_45" x1="70.411" y1="99.9846" x2="71.0158" y2="40.7619" gradientUnits="userSpaceOnUse">
<stop stop-color="#FAFBFE"/>
<stop offset="0.63" stop-color="#0941D4"/>
</linearGradient>
<clipPath id="clip0_448_45">
<rect width="100" height="100" fill="white"/>
</clipPath>
</defs>
</svg>
