<svg width="100" height="100" viewBox="0 0 100 100" fill="none" xmlns="http://www.w3.org/2000/svg">
<g clip-path="url(#clip0_448_806)">
<g clip-path="url(#clip1_448_806)">
<path d="M50.0061 100.012C77.6237 100.012 100.012 77.6237 100.012 50.0061C100.012 22.3885 77.6237 0 50.0061 0C22.3885 0 3.10155e-07 22.3885 6.92749e-07 50.0061C1.07534e-06 77.6237 22.3885 100.012 50.0061 100.012Z" fill="white"/>
<path d="M50.0061 94.9204C25.24 94.9204 5.07961 74.7721 5.07961 50.0061C5.07961 25.24 25.2279 5.07959 50.0061 5.07959C74.7843 5.07959 94.9326 25.2278 94.9326 50.0061C94.9326 74.7843 74.7843 94.9204 50.0061 94.9204ZM50.0061 9.27208C27.5489 9.27208 9.2721 27.5489 9.2721 50.0061C9.2721 72.4632 27.5368 90.7279 49.9939 90.7279C72.4511 90.7279 90.7279 72.4632 90.7279 50.0061C90.7279 27.5489 72.4632 9.27208 50.0061 9.27208Z" fill="url(#paint0_linear_448_806)"/>
<path d="M61.5506 46.9802L61.5506 49.1797L64.0661 49.1432L64.0661 46.9802H61.5506ZM70.604 53.36L70.604 54.8304H65.3542L71.1144 50.48C71.5275 50.1762 71.807 49.921 71.9893 49.7509C72.1594 49.5686 72.2931 49.362 72.3782 49.1311C72.524 48.803 72.5726 48.3169 72.5726 47.6607L72.5726 46.7614C72.5726 46.0809 72.524 45.5705 72.4146 45.2303C72.3053 44.89 72.1108 44.6105 71.8313 44.4282C71.6369 44.3067 71.4182 44.2216 71.2116 44.1609C70.9807 44.1123 70.689 44.088 70.288 44.088H64.054L64.054 46.9923H70.045L70.045 48.2075L62.2919 54.0649C62.061 54.235 61.8666 54.4173 61.6843 54.5996C61.5142 54.7697 61.3683 54.9398 61.2711 55.1464C61.1374 55.3287 61.0524 55.5231 61.0281 55.7054C60.9795 55.8877 60.9673 56.1793 60.9673 56.5439L60.9673 57.7591H70.0085C70.5311 57.7591 70.9685 57.747 71.3088 57.7105C71.6612 57.6619 71.9529 57.589 72.1594 57.4675C72.3782 57.3459 72.5605 57.2001 72.6698 57.0057C72.8035 56.8234 72.8886 56.5804 72.9493 56.2887C73.0101 56.0457 73.0344 55.7783 73.0587 55.4381C73.0709 55.1343 73.083 54.7332 73.0952 54.2228L73.0952 53.3843H70.5675L70.604 53.36Z" fill="url(#paint1_linear_448_806)"/>
<path d="M86.6934 44.5741C86.341 44.1244 85.7334 43.93 84.8463 43.93H76.7287C75.8537 43.93 75.2218 44.1366 74.8694 44.5741C74.5291 44.9994 74.3468 45.7528 74.3468 46.81L74.3468 54.6725H76.8745L76.8745 46.8222H84.7126L84.7126 54.6725H76.8745L76.8745 57.5769H84.8463C85.7212 57.5769 86.341 57.3703 86.6934 56.9328C87.0458 56.5075 87.2159 55.7783 87.2159 54.7089L87.2159 46.81C87.2159 45.7528 87.0458 44.9994 86.6934 44.5741Z" fill="url(#paint2_linear_448_806)"/>
<path d="M25.1185 51.3549C24.8025 50.9296 24.3043 50.6501 23.6116 50.5043C24.3165 50.3706 24.8147 50.1276 25.082 49.7752C25.3615 49.4349 25.5074 48.8881 25.5074 48.1711L25.5074 46.9437C25.5074 46.1781 25.4466 45.607 25.3251 45.2181C25.2157 44.8414 24.9848 44.5497 24.6689 44.331C24.438 44.173 24.2192 44.0758 23.9762 44.0029C23.7332 43.9543 23.3929 43.93 22.9676 43.93H15.8464L15.8464 46.968H21.7645C22.1655 46.968 22.445 47.0531 22.6152 47.2111C22.7853 47.3447 22.8704 47.5999 22.8704 47.9645L22.8704 48.1832C22.8704 48.5357 22.7853 48.803 22.6152 48.9488C22.445 49.1068 22.1655 49.1919 21.7645 49.1919H15.8464L15.8464 46.968H13.2094L13.2094 57.5769H23.0405C23.721 57.5769 24.2314 57.4918 24.5838 57.3095C24.9362 57.1272 25.1914 56.8113 25.3494 56.3738C25.4345 56.155 25.5074 55.9242 25.5317 55.669C25.556 55.4138 25.5681 55.0492 25.5681 54.5753L25.5681 53.1535C25.5681 52.3636 25.4101 51.756 25.0942 51.3428L25.1185 51.3549ZM22.9311 53.5545C22.9311 53.9069 22.846 54.1742 22.6759 54.3201C22.5058 54.4781 22.2263 54.5631 21.8253 54.5631H15.8464L15.8464 52.0719H21.8253C22.2263 52.0719 22.5058 52.157 22.6759 52.2907C22.846 52.4486 22.9311 52.7038 22.9311 53.0563L22.9311 53.5545Z" fill="url(#paint3_linear_448_806)"/>
<path d="M35.1927 52.4243H36.5537C37.2342 52.4243 37.7446 52.3393 38.097 52.157C38.4494 51.9869 38.7046 51.6831 38.8626 51.2334C38.9477 50.9904 39.0084 50.7595 39.0449 50.5165C39.0692 50.2613 39.0935 49.8967 39.0935 49.4471L39.0935 46.9437C39.0935 46.1781 39.0328 45.607 38.9112 45.2181C38.8019 44.8414 38.571 44.5497 38.255 44.331C38.0241 44.173 37.8054 44.0758 37.5623 44.0029C37.3193 43.9543 36.979 43.93 36.5537 43.93H29.4447L29.4447 46.968H35.3507C35.7517 46.968 36.0312 47.0531 36.2013 47.2111C36.3714 47.3447 36.4565 47.5999 36.4565 47.9645L36.4565 48.5478C36.4565 48.9002 36.3714 49.1676 36.2013 49.3134C36.0312 49.4714 35.7517 49.5321 35.3507 49.5321H29.4447L29.4447 46.968H26.8077L26.8077 57.5769H29.4447L29.4447 52.4243H31.8144L36.4808 57.5769H40.2844L35.1927 52.4243Z" fill="url(#paint4_linear_448_806)"/>
<path d="M51.1484 52.0719L51.1484 54.5631H42.9214L42.9214 57.589H51.2942C51.7438 57.589 52.1449 57.5404 52.4608 57.431C52.7889 57.3338 53.0441 57.1637 53.2386 56.9206C53.433 56.6776 53.5788 56.3738 53.6639 55.9971C53.7489 55.6082 53.7976 55.1464 53.7976 54.5753L53.7976 52.0476H51.1605L51.1484 52.0719ZM53.6639 45.5341C53.5788 45.1452 53.433 44.8293 53.2386 44.5984C53.0441 44.3796 52.7889 44.2095 52.4608 44.088C52.1449 43.9908 51.756 43.93 51.2942 43.93H42.7756C41.852 43.93 41.1958 44.1487 40.8312 44.5984C40.4667 45.0601 40.2722 45.8257 40.2722 46.9316L40.2722 54.5631H42.9092L42.9092 46.968H51.1362L51.1362 49.119H53.7733L53.7733 46.9316C53.7733 46.3847 53.7246 45.9229 53.6396 45.5341H53.6639Z" fill="url(#paint5_linear_448_806)"/>
<path d="M55.0006 49.4471H60.3354L60.3354 52.0719H55.0006L55.0006 49.4471Z" fill="url(#paint6_linear_448_806)"/>
</g>
</g>
<defs>
<linearGradient id="paint0_linear_448_806" x1="81.6624" y1="19.3219" x2="4.88518" y2="93.7173" gradientUnits="userSpaceOnUse">
<stop stop-color="#FD9A18"/>
<stop offset="1"/>
</linearGradient>
<linearGradient id="paint1_linear_448_806" x1="90.4363" y1="28.4967" x2="24.7053" y2="94.2156" gradientUnits="userSpaceOnUse">
<stop stop-color="#FD9A18"/>
<stop offset="1"/>
</linearGradient>
<linearGradient id="paint2_linear_448_806" x1="96.7311" y1="34.8037" x2="31.0123" y2="100.523" gradientUnits="userSpaceOnUse">
<stop stop-color="#FD9A18"/>
<stop offset="1"/>
</linearGradient>
<linearGradient id="paint3_linear_448_806" x1="66.4115" y1="4.47198" x2="0.680543" y2="70.2029" gradientUnits="userSpaceOnUse">
<stop stop-color="#FD9A18"/>
<stop offset="1"/>
</linearGradient>
<linearGradient id="paint4_linear_448_806" x1="73.7757" y1="11.8362" x2="8.0448" y2="77.5671" gradientUnits="userSpaceOnUse">
<stop stop-color="#FD9A18"/>
<stop offset="1"/>
</linearGradient>
<linearGradient id="paint5_linear_448_806" x1="79.8639" y1="17.9244" x2="14.133" y2="83.6554" gradientUnits="userSpaceOnUse">
<stop stop-color="#FD9A18"/>
<stop offset="1"/>
</linearGradient>
<linearGradient id="paint6_linear_448_806" x1="85.1744" y1="23.2471" x2="19.4556" y2="88.9659" gradientUnits="userSpaceOnUse">
<stop stop-color="#FD9A18"/>
<stop offset="1"/>
</linearGradient>
<clipPath id="clip0_448_806">
<rect width="100" height="100" fill="white"/>
</clipPath>
<clipPath id="clip1_448_806">
<rect width="100" height="100" fill="white"/>
</clipPath>
</defs>
</svg>
