<svg width="100" height="100" viewBox="0 0 100 100" fill="none" xmlns="http://www.w3.org/2000/svg">
<g clip-path="url(#clip0_448_645)">
<path d="M31.015 41L42.1492 29.9311L44.4925 27.5931L50.053 22.0454L68.985 41L80 29.9311L50.053 0L20 29.9311L31.015 41Z" fill="url(#paint0_linear_448_645)"/>
<path d="M11.1343 38.8722L0.00488281 50.0016L11.1343 61.131L22.2637 50.0016L11.1343 38.8722Z" fill="url(#paint1_linear_448_645)"/>
<path d="M88.8733 38.8712L77.7439 50.0006L88.8733 61.13L100.003 50.0006L88.8733 38.8712Z" fill="url(#paint2_linear_448_645)"/>
<path d="M49.9911 77.7412L38.8616 88.8706L49.9911 100L61.1205 88.8706L49.9911 77.7412Z" fill="url(#paint3_linear_448_645)"/>
<path d="M31.015 81L42.1492 69.9407L44.4925 67.602L50.053 62.0525L68.985 81L80 69.9407L50.053 40L20 69.9407L31.015 81Z" fill="url(#paint4_linear_448_645)"/>
</g>
<defs>
<linearGradient id="paint0_linear_448_645" x1="0.631068" y1="87.2439" x2="76.5022" y2="-1.24249" gradientUnits="userSpaceOnUse">
<stop stop-color="#FFF33B"/>
<stop offset="0.04" stop-color="#FEE62D"/>
<stop offset="0.12" stop-color="#FDD51B"/>
<stop offset="0.2" stop-color="#FDCA0F"/>
<stop offset="0.28" stop-color="#FDC70C"/>
<stop offset="0.67" stop-color="#FBB040"/>
<stop offset="0.89" stop-color="#FBB040"/>
<stop offset="1" stop-color="#FBB040"/>
</linearGradient>
<linearGradient id="paint1_linear_448_645" x1="-12.2058" y1="77.1561" x2="64.3072" y2="-11.8738" gradientUnits="userSpaceOnUse">
<stop stop-color="#FFF33B"/>
<stop offset="0.04" stop-color="#FEE62D"/>
<stop offset="0.12" stop-color="#FDD51B"/>
<stop offset="0.2" stop-color="#FDCA0F"/>
<stop offset="0.28" stop-color="#FDC70C"/>
<stop offset="0.67" stop-color="#FBB040"/>
<stop offset="0.89" stop-color="#FBB040"/>
<stop offset="1" stop-color="#FBB040"/>
</linearGradient>
<linearGradient id="paint2_linear_448_645" x1="32.5155" y1="115.575" x2="109.028" y2="26.5454" gradientUnits="userSpaceOnUse">
<stop stop-color="#FFF33B"/>
<stop offset="0.04" stop-color="#FEE62D"/>
<stop offset="0.12" stop-color="#FDD51B"/>
<stop offset="0.2" stop-color="#FDCA0F"/>
<stop offset="0.28" stop-color="#FDC70C"/>
<stop offset="0.67" stop-color="#FBB040"/>
<stop offset="0.89" stop-color="#FBB040"/>
<stop offset="1" stop-color="#FBB040"/>
</linearGradient>
<linearGradient id="paint3_linear_448_645" x1="29.355" y1="112.883" x2="105.868" y2="23.8535" gradientUnits="userSpaceOnUse">
<stop stop-color="#FFF33B"/>
<stop offset="0.04" stop-color="#FEE62D"/>
<stop offset="0.12" stop-color="#FDD51B"/>
<stop offset="0.2" stop-color="#FDCA0F"/>
<stop offset="0.28" stop-color="#FDC70C"/>
<stop offset="0.67" stop-color="#FBB040"/>
<stop offset="0.89" stop-color="#FBB040"/>
<stop offset="1" stop-color="#FBB040"/>
</linearGradient>
<linearGradient id="paint4_linear_448_645" x1="20.1059" y1="104.651" x2="96.0052" y2="16.1606" gradientUnits="userSpaceOnUse">
<stop stop-color="#FFF33B"/>
<stop offset="0.04" stop-color="#FEE62D"/>
<stop offset="0.12" stop-color="#FDD51B"/>
<stop offset="0.2" stop-color="#FDCA0F"/>
<stop offset="0.28" stop-color="#FDC70C"/>
<stop offset="0.67" stop-color="#FBB040"/>
<stop offset="0.89" stop-color="#FBB040"/>
<stop offset="1" stop-color="#FBB040"/>
</linearGradient>
<clipPath id="clip0_448_645">
<rect width="100" height="100" fill="white"/>
</clipPath>
</defs>
</svg>
