<svg width="100" height="100" viewBox="0 0 100 100" fill="none" xmlns="http://www.w3.org/2000/svg">
<g clip-path="url(#clip0_448_510)">
<path d="M5.82148 50C5.82148 47.35 6.0485 44.7509 6.48992 42.2283C5.17826 42.0754 3.92966 41.6804 2.79457 41.1071C2.26486 43.9865 2 46.955 2 50C2 55.1472 2.79457 60.1032 4.25757 64.7662C5.16565 63.3011 6.11156 61.8742 7.05747 60.4982C6.26291 57.1347 5.83409 53.6183 5.83409 50H5.82148ZM81.4944 82.4628C73.4604 90.2982 62.5257 95.1269 50.4937 95.1269C42.258 95.1269 34.5267 92.8591 27.9053 88.9223C26.4549 89.5083 24.9541 90.0944 23.4154 90.6295C31.1593 95.9168 40.4797 99 50.4937 99C63.6986 99 75.6928 93.6362 84.4456 84.96C83.3105 84.3102 82.3141 83.4693 81.4944 82.4628ZM50.4937 1C34.7033 1 20.6408 8.66979 11.787 20.5057C13.0104 20.9771 14.1203 21.6524 15.0914 22.506C23.2515 11.7912 36.0906 4.87311 50.4937 4.87311C57.0016 4.87311 63.1815 6.28731 68.7687 8.82267C70.3326 8.08372 71.8587 7.40848 73.3595 6.79693C66.549 3.10218 58.7547 1 50.4937 1ZM95.5821 31.9212C94.7371 33.2844 93.8669 34.6477 92.9588 35.9854C94.3966 40.3937 95.1659 45.1204 95.1659 50C95.1659 55.4784 94.1948 60.7275 92.4165 65.5816C93.6777 65.9384 94.838 66.5372 95.8596 67.3143C97.8901 61.9251 99 56.09 99 50C99 43.91 97.7892 37.5143 95.5821 31.9212ZM91.3066 68.3591C89.3517 72.7673 86.7284 76.806 83.5627 80.3224C84.3447 81.3671 85.3789 82.1953 86.577 82.7176C89.8814 79.0101 92.6309 74.793 94.6993 70.1937C93.766 69.3146 92.6057 68.6648 91.3192 68.3591H91.3066ZM9.17631 24.3534C6.8809 28.1118 5.06475 32.2142 3.84137 36.5715C4.87557 37.3232 6.11156 37.7819 7.46106 37.8456C8.62138 33.6921 10.3492 29.7681 12.5564 26.188C11.6483 25.2834 10.488 24.6209 9.17631 24.3534Z" fill="url(#paint0_linear_448_510)"/>
<path d="M54 76C71.1208 76 85 62.1208 85 45C85 27.8792 71.1208 14 54 14C36.8792 14 23 27.8792 23 45C23 62.1208 36.8792 76 54 76Z" fill="url(#paint1_radial_448_510)"/>
<path d="M70.0127 19C77.9491 23.6606 83.4436 30.8895 86 39.0205C85.5548 39.672 85.0843 40.336 84.601 41C83.6979 34.3098 80.5437 27.8702 75.1765 22.8838C73.5612 21.3804 71.8315 20.09 70 19H70.0127Z" fill="url(#paint2_linear_448_510)"/>
<path d="M85.6872 40C88.0775 48.7109 87.2724 58.3414 82.7056 66.9374C73.4589 84.3336 52.2354 90.9753 35 82.0218C38.749 80.1314 42.6867 77.8834 46.7 75.2906C56.9657 77.7429 68.1876 74.7158 75.9373 66.3754C82.2653 59.5676 84.9701 50.6268 84.1146 42.0053C84.6556 41.3283 85.1714 40.6642 85.6746 40H85.6872Z" fill="url(#paint3_linear_448_510)"/>
<path d="M64 15.1465C64 15.1465 63.9485 15.172 63.9227 15.1847C52.754 11.5517 39.9622 14.3179 31.357 23.3559C25.4056 29.6021 22.5844 37.6458 22.842 45.5875C22.842 45.7022 22.842 45.8169 22.8549 45.9189C23.1899 53.6949 26.4748 61.3561 32.6452 67.1307C36.7159 70.9295 41.5467 73.4407 46.6093 74.6645C42.281 77.214 38.0557 79.3428 34.0751 81C23.6794 75.3911 17.1353 65.5118 15.4349 54.7657C15.3834 54.4597 15.3447 54.1665 15.3061 53.8606C14.3528 46.5945 15.6024 38.9588 19.3897 32.0242C28.1108 16.0388 47.2277 9.14241 63.9871 15.1465H64Z" fill="url(#paint4_linear_448_510)"/>
<path d="M68.9429 27.7569C69.1456 27.8709 69.3483 27.985 69.5511 28.099C69.6905 28.175 69.8172 28.2511 69.9565 28.3398C71.3123 29.1634 72.6047 30.1517 73.8085 31.2794C77.7998 35.0553 80.1439 39.9335 80.8028 44.9892C77.0015 50.2855 71.6798 55.9367 65.243 61.2584C71.4517 56.1521 76.7734 50.8177 80.8914 45.7494C81.5123 52.1481 79.4723 58.775 74.7081 63.8053C68.8669 69.9886 60.4028 72.206 52.6862 70.3814C56.2467 68.126 59.8959 65.5412 63.5324 62.6522C59.8199 65.5918 56.082 68.1767 52.4455 70.3307C48.7203 69.4057 45.1724 67.5431 42.1821 64.7176C37.646 60.4222 35.2385 54.733 35.0105 48.9551C35.0105 48.8664 35.0105 48.7904 35.0105 48.7017C34.8331 42.7971 36.9111 36.8292 41.2952 32.1917C47.6306 25.5015 57.0323 23.4488 65.243 26.1604C65.4838 26.2364 65.7245 26.3251 65.9652 26.4138C66.5228 26.6165 67.0676 26.8446 67.6124 27.098C67.6505 27.1107 67.6885 27.136 67.7265 27.1487C67.9292 27.2501 68.1446 27.3514 68.3474 27.4528C68.5501 27.5542 68.7528 27.6682 68.9682 27.7823L68.9429 27.7569Z" fill="url(#paint5_linear_448_510)"/>
<path d="M15.6205 54C15.6586 54.306 15.6968 54.5993 15.7477 54.9054C7.35496 66.369 4.54468 76.1111 8.76646 81.3392C12.7721 86.2868 22.1566 86.1848 34.1353 81.1479C34.1862 81.1735 34.237 81.199 34.2879 81.2372C34.5295 81.3647 34.7711 81.4922 35 81.607C20.4654 88.8244 5.68914 92.9176 1.32748 87.5364C-3.22493 81.9003 4.51924 67.4911 15.6078 54H15.6205Z" fill="url(#paint6_linear_448_510)"/>
<path d="M34 81.5285C55.3102 70.9505 72.3051 57.0845 85.7208 39L86 40.0705C72.5462 58.0403 55.7037 71.8554 34.8631 82L34 81.5412L34 81.5285Z" fill="url(#paint7_radial_448_510)"/>
<path d="M15.6205 54C15.6586 54.306 15.6968 54.5993 15.7477 54.9054C7.35496 66.369 4.54468 76.1111 8.76646 81.3392C12.7721 86.2868 22.1566 86.1848 34.1353 81.1479C34.1862 81.1735 34.237 81.199 34.2879 81.2372C34.5295 81.3647 34.7711 81.4922 35 81.607C20.4654 88.8244 5.68914 92.9176 1.32748 87.5364C-3.22493 81.9003 4.51924 67.4911 15.6078 54H15.6205Z" fill="url(#paint8_linear_448_510)"/>
<path d="M63 15.7931C78.4193 7.57329 94.3616 2.84753 98.7489 8.41538C102.932 13.7318 96.0961 27.0167 86.0971 40C86.0078 39.6481 85.9186 39.2962 85.8165 38.9442C93.0607 28.173 95.7007 18.8095 91.8873 13.9581C87.8444 8.81757 76.9271 10.4138 64.1861 16.2707L63.0128 15.7931H63Z" fill="url(#paint9_linear_448_510)"/>
<path d="M14 31C14 34.8729 11.0896 38 7.5 38C7.39086 38 7.29384 38 7.1847 38C5.88713 37.9346 4.69869 37.4636 3.70429 36.6916C2.06716 35.4224 1 33.3421 1 31.0131C1 27.1402 3.91045 24 7.5 24C7.96082 24 8.39739 24.0523 8.83396 24.1439C10.083 24.4318 11.2108 25.0991 12.084 26.028C13.2724 27.2972 14 29.0636 14 31Z" fill="url(#paint10_linear_448_510)"/>
<path d="M97 75.4874C97 79.6401 93.6429 83 89.4937 83C88.4376 83 87.4317 82.7861 86.5138 82.3834C85.3194 81.8675 84.2883 81.0495 83.5088 80.0176C82.5658 78.7592 82 77.1988 82 75.5C82 71.3599 85.3571 68 89.4937 68C90.0847 68 90.6756 68.0755 91.2288 68.2013C92.5113 68.5034 93.6681 69.1451 94.5985 70.0134C96.0696 71.3851 96.9874 73.3356 96.9874 75.5L97 75.4874Z" fill="url(#paint11_linear_448_510)"/>
</g>
<defs>
<linearGradient id="paint0_linear_448_510" x1="1.98739" y1="50" x2="99" y2="50" gradientUnits="userSpaceOnUse">
<stop stop-color="#7F99FF"/>
<stop offset="1" stop-color="#3BFEE2"/>
</linearGradient>
<radialGradient id="paint1_radial_448_510" cx="0" cy="0" r="1" gradientUnits="userSpaceOnUse" gradientTransform="translate(53.4695 47.376) rotate(174.88) scale(30.9363 30.9363)">
<stop offset="0.46" stop-color="white"/>
<stop offset="0.69" stop-color="#FDFDFE"/>
<stop offset="0.77" stop-color="#F6F8FE"/>
<stop offset="0.83" stop-color="#EAF0FE"/>
<stop offset="0.88" stop-color="#D9E4FE"/>
<stop offset="0.92" stop-color="#C3D4FE"/>
<stop offset="0.96" stop-color="#A8C1FD"/>
<stop offset="0.99" stop-color="#88ABFD"/>
<stop offset="1" stop-color="#7FA4FD"/>
</radialGradient>
<linearGradient id="paint2_linear_448_510" x1="8.23501" y1="11.1577" x2="97.3282" y2="36.2731" gradientUnits="userSpaceOnUse">
<stop stop-color="#32FFB5"/>
<stop offset="1" stop-color="#3B00D6"/>
</linearGradient>
<linearGradient id="paint3_linear_448_510" x1="-0.747967" y1="44.2202" x2="87.7605" y2="68.4283" gradientUnits="userSpaceOnUse">
<stop stop-color="#32FFB5"/>
<stop offset="1" stop-color="#3B00D6"/>
</linearGradient>
<linearGradient id="paint4_linear_448_510" x1="0.852383" y1="34.8142" x2="91.1443" y2="60.1647" gradientUnits="userSpaceOnUse">
<stop stop-color="#32FFB5"/>
<stop offset="1" stop-color="#3B00D6"/>
</linearGradient>
<linearGradient id="paint5_linear_448_510" x1="46.7135" y1="27.9827" x2="69.2804" y2="68.1024" gradientUnits="userSpaceOnUse">
<stop stop-color="white"/>
<stop offset="1" stop-color="#5EA5FF"/>
</linearGradient>
<linearGradient id="paint6_linear_448_510" x1="4.50043" y1="60.3552" x2="21.0307" y2="89.58" gradientUnits="userSpaceOnUse">
<stop stop-color="#7F99FF"/>
<stop offset="1" stop-color="#3BFEE2"/>
</linearGradient>
<radialGradient id="paint7_radial_448_510" cx="0" cy="0" r="1" gradientUnits="userSpaceOnUse" gradientTransform="translate(60.2112 60.4975) rotate(-61.7484) scale(23.8102 23.7564)">
<stop offset="0.46" stop-color="white"/>
<stop offset="0.69" stop-color="#FDFDFE"/>
<stop offset="0.77" stop-color="#F6F8FE"/>
<stop offset="0.83" stop-color="#EAF0FE"/>
<stop offset="0.88" stop-color="#D9E4FE"/>
<stop offset="0.92" stop-color="#C3D4FE"/>
<stop offset="0.96" stop-color="#A8C1FD"/>
<stop offset="0.99" stop-color="#88ABFD"/>
<stop offset="1" stop-color="#7FA4FD"/>
</radialGradient>
<linearGradient id="paint8_linear_448_510" x1="4.50043" y1="60.3552" x2="21.0307" y2="89.58" gradientUnits="userSpaceOnUse">
<stop stop-color="#7F99FF"/>
<stop offset="1" stop-color="#3BFEE2"/>
</linearGradient>
<linearGradient id="paint9_linear_448_510" x1="78.2056" y1="7.40408" x2="93.945" y2="35.6958" gradientUnits="userSpaceOnUse">
<stop stop-color="#7F99FF"/>
<stop offset="1" stop-color="#3BFEE2"/>
</linearGradient>
<linearGradient id="paint10_linear_448_510" x1="1.01213" y1="31" x2="14" y2="31" gradientUnits="userSpaceOnUse">
<stop stop-color="#7F99FF"/>
<stop offset="1" stop-color="#3BFEE2"/>
</linearGradient>
<linearGradient id="paint11_linear_448_510" x1="82" y1="75.4874" x2="97" y2="75.4874" gradientUnits="userSpaceOnUse">
<stop stop-color="#7F99FF"/>
<stop offset="1" stop-color="#3BFEE2"/>
</linearGradient>
<clipPath id="clip0_448_510">
<rect width="100" height="100" fill="white"/>
</clipPath>
</defs>
</svg>
