<svg width="100" height="100" viewBox="0 0 100 100" fill="none" xmlns="http://www.w3.org/2000/svg">
<g clip-path="url(#clip0_448_183)">
<g clip-path="url(#clip1_448_183)">
<path d="M65.3265 48.6591H60.5338L60.5338 64H65.3265L65.3265 48.6591Z" fill="url(#paint0_linear_448_183)"/>
<path d="M30.6531 23H25.8603L25.8603 49.7237H30.6531L30.6531 23Z" fill="url(#paint1_linear_448_183)"/>
<path d="M15.3231 64C6.87539 64 3.25968e-07 57.1962 2.10158e-07 48.8365C9.43491e-08 40.4768 6.87539 33.6663 15.3231 33.6663C23.7708 33.6663 30.6462 40.47 30.6462 48.8297C30.6462 57.1894 23.7708 63.9932 15.3231 63.9932L15.3231 64ZM15.3231 38.4091C9.51659 38.4091 4.78588 43.0837 4.78588 48.8365C4.78588 54.5894 9.50969 59.264 15.3231 59.264C21.1365 59.264 25.8603 54.5894 25.8603 48.8365C25.8603 43.0837 21.1365 38.4091 15.3231 38.4091ZM49.9966 64C41.5489 64 34.6735 57.1962 34.6735 48.8365C34.6735 40.4768 41.5489 33.6731 49.9966 33.6731C58.4443 33.6731 65.3196 40.4768 65.3196 48.8365C65.3196 57.1962 58.4443 64 49.9966 64ZM49.9966 38.4091C44.1901 38.4091 39.4594 43.0837 39.4594 48.8365C39.4594 54.5894 44.1832 59.264 49.9966 59.264C55.8099 59.264 60.5338 54.5894 60.5338 48.8365C60.5338 43.0837 55.8099 38.4091 49.9966 38.4091ZM84.67 64C76.2223 64 69.3469 57.1962 69.3469 48.8365C69.3469 40.4768 76.2223 33.6731 84.67 33.6731C93.1177 33.6731 99.9931 40.4768 99.9931 48.8365C99.9931 57.1962 93.1177 64 84.67 64ZM84.67 38.4091C78.8635 38.4091 74.1328 43.0837 74.1328 48.8365C74.1328 54.5894 78.8566 59.264 84.67 59.264C90.4834 59.264 95.2072 54.5894 95.2072 48.8365C95.2072 43.0837 90.4834 38.4091 84.67 38.4091Z" fill="url(#paint2_linear_448_183)"/>
</g>
</g>
<defs>
<linearGradient id="paint0_linear_448_183" x1="62.9336" y1="44.0869" x2="62.9336" y2="69.589" gradientUnits="userSpaceOnUse">
<stop offset="0.49" stop-color="#69A4FF"/>
<stop offset="0.78" stop-color="#72FFFF" stop-opacity="0"/>
</linearGradient>
<linearGradient id="paint1_linear_448_183" x1="28.2532" y1="64.5664" x2="28.2532" y2="10.7505" gradientUnits="userSpaceOnUse">
<stop offset="0.42" stop-color="#5E3DFF"/>
<stop offset="0.79" stop-color="#72FFFF" stop-opacity="0"/>
</linearGradient>
<linearGradient id="paint2_linear_448_183" x1="2.10158e-07" y1="48.8365" x2="100" y2="48.8365" gradientUnits="userSpaceOnUse">
<stop stop-color="#5800FF"/>
<stop offset="1" stop-color="#72FFFF"/>
</linearGradient>
<clipPath id="clip0_448_183">
<rect width="100" height="100" fill="white"/>
</clipPath>
<clipPath id="clip1_448_183">
<rect width="100" height="41" fill="white" transform="translate(0 23)"/>
</clipPath>
</defs>
</svg>
