<svg width="40" height="40" viewBox="0 0 40 40" fill="none" xmlns="http://www.w3.org/2000/svg">
<g clip-path="url(#clip0_448_128)" filter="url(#filter0_d_448_128)">
<g clip-path="url(#clip1_448_128)">
<path d="M33.2263 9.01371L27.9908 3.77826C26.8535 2.64091 25.3144 2.00002 23.7077 2.00002H16.3059C14.6991 2.00002 13.1556 2.63639 12.0182 3.77375L6.77825 9.00919C5.64089 10.1465 5 11.6856 5 13.2968V20.6987C5 22.3054 5.63638 23.849 6.77373 24.9863L12.0092 30.2218C13.1465 31.3591 14.6856 32 16.2968 32H23.6987C25.3054 32 26.849 31.3636 27.9863 30.2263L33.2218 24.9908C34.3591 23.8535 35 22.3144 35 20.7032V13.3014C35 11.6946 34.3636 10.1511 33.2263 9.01371ZM32.274 20.0262C32.274 21.3396 31.7504 22.6033 30.8207 23.533L26.5375 27.8162C25.6078 28.7459 24.3441 29.2695 23.0307 29.2695H16.9738C15.6604 29.2695 14.3967 28.7459 13.467 27.8162L9.18384 23.533C8.2541 22.6033 7.73056 21.3396 7.73056 20.0262V13.9693C7.73056 12.6559 8.2541 11.3922 9.18384 10.4625L13.467 6.17934C14.3967 5.2496 15.6604 4.72606 16.9738 4.72606H23.0307C24.3441 4.72606 25.6078 5.2496 26.5375 6.17934L30.8207 10.4625C31.7504 11.3922 32.274 12.6559 32.274 13.9693V20.0262Z" fill="white"/>
<path d="M25.6123 11.8481C24.5788 11.3742 23.473 11.0266 22.3176 10.8235C22.295 10.8235 22.277 10.8281 22.2634 10.8506C22.119 11.1034 21.9656 11.4328 21.8527 11.6946C20.607 11.5096 19.3704 11.5096 18.1518 11.6946C18.0435 11.4283 17.8765 11.1034 17.7366 10.8506C17.7275 10.8326 17.705 10.8235 17.6824 10.8235C16.527 11.0221 15.4212 11.3697 14.3877 11.8481C14.3787 11.8481 14.3696 11.8571 14.3651 11.8661C12.2664 15.0029 11.6887 18.0629 11.9731 21.0823C11.9731 21.0958 11.9821 21.1094 11.9956 21.1184C13.3812 22.1339 14.7217 22.7522 16.0396 23.1629C16.0621 23.1675 16.0847 23.1629 16.0982 23.1449C16.4097 22.7206 16.6895 22.2693 16.9242 21.7999C16.9377 21.7728 16.9242 21.7413 16.8971 21.7277C16.4548 21.5607 16.0351 21.3576 15.6334 21.1274C15.6018 21.1094 15.5973 21.0643 15.6289 21.0417C15.7146 20.9785 15.8004 20.9108 15.8816 20.8431C15.8951 20.8296 15.9177 20.8296 15.9358 20.8341C18.5851 22.0436 21.4555 22.0436 24.0733 20.8341C24.0913 20.8251 24.1094 20.8296 24.1274 20.8386C24.2087 20.9063 24.2944 20.974 24.3802 21.0372C24.4073 21.0597 24.4073 21.1049 24.3802 21.1229C23.9785 21.3576 23.5588 21.5562 23.1164 21.7232C23.0894 21.7322 23.0758 21.7683 23.0894 21.7954C23.3331 22.2648 23.6084 22.7161 23.9153 23.1404C23.9288 23.1584 23.9514 23.1675 23.974 23.1584C25.2964 22.7477 26.6368 22.1294 28.0224 21.1139C28.036 21.1049 28.0405 21.0913 28.045 21.0778C28.3835 17.5845 27.4808 14.5515 25.6529 11.8616C25.6529 11.8526 25.6394 11.8481 25.6304 11.8436L25.6123 11.8481ZM17.3168 19.2454C16.518 19.2454 15.8636 18.5142 15.8636 17.6116C15.8636 16.7089 16.509 15.9778 17.3168 15.9778C18.1247 15.9778 18.7837 16.7179 18.7701 17.6116C18.7701 18.5097 18.1247 19.2454 17.3168 19.2454ZM22.6967 19.2454C21.8979 19.2454 21.2434 18.5142 21.2434 17.6116C21.2434 16.7089 21.8888 15.9778 22.6967 15.9778C23.5046 15.9778 24.1635 16.7179 24.15 17.6116C24.15 18.5097 23.5136 19.2454 22.6967 19.2454Z" fill="white"/>
</g>
</g>
<defs>
<filter id="filter0_d_448_128" x="0" y="1.52588e-05" width="40" height="40" filterUnits="userSpaceOnUse" color-interpolation-filters="sRGB">
<feFlood flood-opacity="0" result="BackgroundImageFix"/>
<feColorMatrix in="SourceAlpha" type="matrix" values="0 0 0 0 0 0 0 0 0 0 0 0 0 0 0 0 0 0 127 0" result="hardAlpha"/>
<feOffset dy="3"/>
<feGaussianBlur stdDeviation="2.5"/>
<feColorMatrix type="matrix" values="0 0 0 0 0 0 0 0 0 0 0 0 0 0 0 0 0 0 0.3 0"/>
<feBlend mode="normal" in2="BackgroundImageFix" result="effect1_dropShadow_448_128"/>
<feBlend mode="normal" in="SourceGraphic" in2="effect1_dropShadow_448_128" result="shape"/>
</filter>
<clipPath id="clip0_448_128">
<rect width="30" height="30" fill="white" transform="translate(5 2.00002)"/>
</clipPath>
<clipPath id="clip1_448_128">
<rect width="30" height="30" fill="white" transform="translate(5 2.00002)"/>
</clipPath>
</defs>
</svg>
