<svg width="100" height="100" viewBox="0 0 100 100" fill="none" xmlns="http://www.w3.org/2000/svg">
<g clip-path="url(#clip0_448_75)">
<g clip-path="url(#clip1_448_75)">
<path d="M17.7352 31.131C16.0274 34.8544 15.1736 38.5918 15.1736 42.3292C15.1736 44.0509 15.3415 45.7587 15.6635 47.4244C15.8175 48.2363 16.0134 49.0341 16.2654 49.832C16.5314 50.7139 16.8393 51.5817 17.2032 52.4636C17.9031 54.1573 18.743 55.7391 19.7088 57.2088C20.6747 58.6786 21.7805 60.0504 22.9983 61.3102C25.7699 64.2637 29.0034 66.5313 32.6848 68.1131C36.1842 69.6249 39.8096 70.4087 43.561 70.4787H58.3007L58.3427 70.4367H72.8303L58.3147 85.2184H43.575C43.2811 85.2184 42.9871 85.2184 42.6932 85.2184C31.215 85.0084 21.3186 80.963 13.0319 73.0823C6.18701 66.6153 2.05767 58.9866 0.601904 50.224C0.209967 47.8583 6.29061e-07 45.4087 5.93769e-07 42.8611C4.28747e-07 30.949 4.28331 20.8287 12.8359 12.5C21.3746 4.17133 31.5929 0 43.463 0H87.1361L87.1361 14.6836H43.463C42.3152 14.6836 41.1814 14.7536 40.0616 14.8796C37.78 15.1456 35.5403 15.6775 33.3707 16.4894C30.1372 17.6932 27.1976 19.4429 24.5661 21.7525C21.7245 24.2721 19.4429 27.3936 17.7352 31.117L17.7352 31.131Z" fill="url(#paint0_linear_448_75)"/>
<path d="M72.8301 70.5767L72.8301 85.2183L58.3145 100L58.3145 85.2463L72.7321 70.5767H72.8301Z" fill="url(#paint1_linear_448_75)"/>
<path d="M58.3147 85.2464L58.3147 99.986H43.575C31.7189 99.958 21.5286 95.9126 13.0179 87.8499C4.33931 79.6053 2.67603e-07 69.5269 1.02581e-07 57.6148C6.72886e-08 55.0672 0.195969 52.5896 0.587906 50.21C2.04367 58.9726 6.18701 66.5873 13.0039 73.0823C21.2906 80.949 31.187 84.9944 42.6652 85.2184C42.9591 85.2324 43.2531 85.2464 43.547 85.2603H58.2867L58.3147 85.2464Z" fill="url(#paint2_linear_448_75)"/>
<path d="M87.1361 14.7676L87.1361 29.4512H43.4631C39.9777 29.4512 36.6042 30.0531 33.3708 31.2569C30.1373 32.4607 27.1977 34.2105 24.5662 36.5201C21.7246 39.0397 19.443 42.1612 17.7353 45.8846C17.1334 47.2004 16.6294 48.5162 16.2515 49.832C16.0135 49.0201 15.8036 48.2222 15.6496 47.4244C15.3276 45.7446 15.1597 44.0509 15.1597 42.3292C15.1597 38.5778 16.0135 34.8544 17.7213 31.131C19.429 27.4076 21.7106 24.2861 24.5522 21.7665C27.1837 19.4708 30.1093 17.7071 33.3568 16.5033C35.5264 15.6914 37.7661 15.1595 40.0477 14.8936C41.1675 14.8236 42.3013 14.7816 43.4491 14.7816H87.1222L87.1361 14.7676Z" fill="url(#paint3_linear_448_75)"/>
<path d="M72.8444 55.7109L72.8444 55.8229H72.7324L72.8444 55.7109Z" fill="black"/>
<path d="M87.0943 70.5767L87.0943 100L72.8306 85.2323L72.8306 70.5767H87.0943Z" fill="url(#paint4_linear_448_75)"/>
<path d="M101.386 70.5769L101.386 100H87.0938L87.1358 85.2325H87.0938L87.0938 70.5769H52.9253L52.9253 56.3271H87.1498C91.0832 56.3271 94.6386 57.9369 97.2142 60.4985C98.7679 62.0522 99.9718 63.9699 100.686 66.0976C101.162 67.4974 101.414 69.0091 101.414 70.5769H101.386Z" fill="url(#paint5_linear_448_75)"/>
<path d="M97.2006 60.4982C94.625 57.9226 91.0695 56.3269 87.1362 56.3269H52.9117L39.1519 42.0771H78.7655L97.1866 60.4982H97.2006Z" fill="url(#paint6_linear_448_75)"/>
<path d="M52.9253 56.3269L52.9253 70.5766L39.1655 56.3269L39.1655 42.0771L52.9253 56.3269Z" fill="url(#paint7_linear_448_75)"/>
</g>
</g>
<defs>
<linearGradient id="paint0_linear_448_75" x1="75.8119" y1="-10.2464" x2="22.1165" y2="72.2844" gradientUnits="userSpaceOnUse">
<stop stop-color="#FF585E"/>
<stop offset="1" stop-color="#FFDFC4"/>
</linearGradient>
<linearGradient id="paint1_linear_448_75" x1="81.5227" y1="84.6584" x2="57.8805" y2="85.5823" gradientUnits="userSpaceOnUse">
<stop offset="0.24" stop-color="#FF585E"/>
<stop offset="1" stop-color="#FFDFC4"/>
</linearGradient>
<linearGradient id="paint2_linear_448_75" x1="-8.48264" y1="52.8835" x2="64.9636" y2="109.183" gradientUnits="userSpaceOnUse">
<stop stop-color="#FF585E"/>
<stop offset="1" stop-color="#FFDFC4"/>
</linearGradient>
<linearGradient id="paint3_linear_448_75" x1="12.2481" y1="33.2446" x2="86.3943" y2="29.1293" gradientUnits="userSpaceOnUse">
<stop stop-color="#FF585E"/>
<stop offset="1" stop-color="#FFDFC4"/>
</linearGradient>
<linearGradient id="paint4_linear_448_75" x1="70.5209" y1="84.9384" x2="86.9963" y2="85.2883" gradientUnits="userSpaceOnUse">
<stop stop-color="#FF585E"/>
<stop offset="1" stop-color="#FFDFC4"/>
</linearGradient>
<linearGradient id="paint5_linear_448_75" x1="77.1554" y1="47.9145" x2="77.1554" y2="109.323" gradientUnits="userSpaceOnUse">
<stop stop-color="#FF585E"/>
<stop offset="1" stop-color="#FFDFC4"/>
</linearGradient>
<linearGradient id="paint6_linear_448_75" x1="68.2532" y1="41.9932" x2="68.1132" y2="60.2882" gradientUnits="userSpaceOnUse">
<stop stop-color="#FF585E"/>
<stop offset="1" stop-color="#FFDFC4"/>
</linearGradient>
<linearGradient id="paint7_linear_448_75" x1="46.1364" y1="42.1191" x2="45.9404" y2="70.5206" gradientUnits="userSpaceOnUse">
<stop stop-color="#FF585E"/>
<stop offset="1" stop-color="#FFDFC4"/>
</linearGradient>
<clipPath id="clip0_448_75">
<rect width="100" height="100" fill="white"/>
</clipPath>
<clipPath id="clip1_448_75">
<rect width="100" height="100" fill="white"/>
</clipPath>
</defs>
</svg>
