<svg width="483" height="273" viewBox="0 0 483 273" fill="none" xmlns="http://www.w3.org/2000/svg">
<path d="M448.5 7.46997L479.21 38.18V174.74L469.5 184.45L468.62 185.33V260.15L459.44 269.33H165.12L158.41 262.62L157.53 261.74H45.84L25.1 241V173.33L24.22 172.45L3 151.23V34.81L30.31 7.46997H448.49M449.73 4.46997H29.07L0 33.56V152.47L22.1 174.57V242.24L44.6 264.74H156.3L163.89 272.33H460.69L471.63 261.39V186.57L482.22 175.98V36.94L449.75 4.46997H449.73Z" fill="url(#paint0_linear_362_6814)"/>
<path d="M224.82 4.71L229.53 0H395.87L400.93 5.06C400.93 5.06 224.83 5.18 224.83 4.71H224.82Z" fill="#D4A555"/>
<path d="M476.09 31.53V180.69L481.5 175.28V36.94C481.5 36.94 476.09 31.76 476.09 31.53Z" fill="#D4A555"/>
<path d="M480.79 186.92L475.32 192.39V198.75L480.77 193.31L480.79 186.92Z" fill="#D4A555"/>
<path d="M480.79 196.63L475.32 202.1V208.45L480.77 203.01L480.79 196.63Z" fill="#D4A555"/>
<path d="M480.79 206.33L475.32 211.8V218.16L480.77 212.72L480.79 206.33Z" fill="#D4A555"/>
<path d="M480.79 216.04L475.32 221.51V227.86L480.77 222.42L480.79 216.04Z" fill="#D4A555"/>
<path d="M480.79 225.74L475.32 231.21V237.57L480.77 232.13L480.79 225.74Z" fill="#D4A555"/>
<path d="M480.79 235.45L475.32 240.92V247.27L480.77 241.83L480.79 235.45Z" fill="#D4A555"/>
<path d="M480.79 245.15L475.32 250.62V256.98L480.77 251.54L480.79 245.15Z" fill="#D4A555"/>
<path d="M23.29 271.45H128.89L126.93 269.49H42.64L23.12 249.98L23.29 271.45Z" fill="#D4A555"/>
<defs>
<linearGradient id="paint0_linear_362_6814" x1="0" y1="138.4" x2="482.21" y2="138.4" gradientUnits="userSpaceOnUse">
<stop stop-color="#D4A555"/>
<stop offset="0.04" stop-color="#C5994F"/>
<stop offset="0.11" stop-color="#A07C40"/>
<stop offset="0.2" stop-color="#634D27"/>
<stop offset="0.32" stop-color="#100C06"/>
<stop offset="0.34"/>
<stop offset="0.36" stop-color="#0A0804"/>
<stop offset="0.49" stop-color="#5F4A26"/>
<stop offset="0.59" stop-color="#9E7B3F"/>
<stop offset="0.66" stop-color="#C5994F"/>
<stop offset="0.7" stop-color="#D4A555"/>
<stop offset="0.84" stop-color="#6B542B"/>
<stop offset="0.95" stop-color="#1E170C"/>
<stop offset="1"/>
</linearGradient>
</defs>
</svg>
