<svg width="100" height="100" viewBox="0 0 100 100" fill="none" xmlns="http://www.w3.org/2000/svg">
<path d="M68.7987 76.6713H17.2375V70.9446H71.1027L68.7987 76.6713Z" fill="url(#paint0_linear_362_6692)"/>
<path d="M60.7703 25.0207V44.5587H56.4661V41.9074C55.7428 42.8829 54.7536 43.6749 53.4961 44.2825C52.2398 44.8911 50.9973 45.1949 49.7696 45.1949C48.2657 45.1949 46.9143 44.9141 45.7153 44.3512C44.5163 43.7896 43.4686 42.9746 42.5734 41.9063C41.7928 40.9652 41.1898 39.8785 40.7657 38.644C40.3416 37.4106 40.1284 36.128 40.1284 34.796C40.1284 33.3838 40.321 32.1137 40.705 30.9824C41.089 29.8522 41.7355 28.7816 42.6421 27.7717C43.6291 26.6243 44.7306 25.7749 45.9468 25.2236C47.163 24.6722 48.4835 24.3971 49.906 24.3971C51.3285 24.3971 52.4966 24.6837 53.6153 25.2579C54.7341 25.8322 55.6832 26.6701 56.4638 27.7717V25.0172H60.768L60.7703 25.0207ZM56.3113 34.7639C56.3113 33.1007 55.7886 31.7194 54.7444 30.6236C53.7001 29.5278 52.3453 28.9799 50.682 28.9799C49.0188 28.9799 47.5974 29.545 46.4901 30.6752C45.3829 31.8054 44.8292 33.2371 44.8292 34.9702C44.8292 36.5544 45.3909 37.8909 46.5165 38.981C47.641 40.0711 49.0062 40.6167 50.6133 40.6167C52.2203 40.6167 53.6428 40.0654 54.71 38.9638C55.7772 37.8622 56.3113 36.4615 56.3113 34.7639Z" fill="white"/>
<path d="M64.2653 44.5587V18.5133H68.9477V44.5587H64.2653Z" fill="white"/>
<path d="M72.7339 44.5587V18.5133H77.4163V44.5587H72.7339Z" fill="white"/>
<path d="M37.7911 41.4478V67.4931H33.5052V64.8418C32.8163 65.8746 31.8753 66.6816 30.682 67.2605C29.4887 67.8393 28.2427 68.1293 26.9463 68.1293C25.5353 68.1293 24.2297 67.8393 23.0295 67.2605C21.8306 66.6816 20.7829 65.8746 19.8876 64.8418C19.0612 63.8893 18.4124 62.7935 17.9424 61.5544C17.4713 60.3152 17.2363 59.0647 17.2363 57.8015C17.2363 57.1126 17.2879 56.4558 17.3911 55.8299C17.4942 55.2041 17.6604 54.5816 17.8897 53.9627C18.3367 52.7465 19.0027 51.6415 19.8865 50.6488C20.7703 49.6561 21.8604 48.8561 23.1568 48.2474C24.4532 47.6387 25.7622 47.335 27.0816 47.335C28.229 47.335 29.3397 47.5619 30.4126 48.0147C31.4855 48.4686 32.3831 49.1197 33.1063 49.9691V41.4478H37.7888H37.7911ZM33.4181 57.6983C33.4181 56.0913 32.8473 54.7261 31.7056 53.6016C30.5639 52.4771 29.1896 51.9143 27.5825 51.9143C26.0786 51.9143 24.7615 52.4851 23.6313 53.6268C22.5011 54.7685 21.936 56.0913 21.936 57.5952C21.936 59.2366 22.4839 60.6396 23.5798 61.8042C24.6756 62.9688 26.0328 63.5511 27.6513 63.5511C29.2698 63.5511 30.6063 62.9803 31.7308 61.8386C32.8553 60.6969 33.4181 59.3168 33.4181 57.6983Z" fill="white"/>
<path d="M61.1508 47.9551V67.4932H56.8466V64.8419C56.1233 65.8173 55.1341 66.6094 53.8766 67.2169C52.6203 67.8256 51.3778 68.1293 50.1501 68.1293C48.6462 68.1293 47.2948 67.8485 46.0958 67.2857C44.8968 66.724 43.8491 65.909 42.9539 64.8407C42.1733 63.8996 41.5704 62.813 41.1462 61.5784C40.7221 60.3451 40.5089 59.0624 40.5089 57.7304C40.5089 56.3182 40.7015 55.0482 41.0855 53.9168C41.4695 52.7866 42.116 51.716 43.0227 50.7061C44.0096 49.5587 45.1112 48.7094 46.3273 48.158C47.5435 47.6066 48.864 47.3315 50.2865 47.3315C51.7091 47.3315 52.8771 47.6181 53.9958 48.1924C55.1146 48.7667 56.0637 49.6046 56.8443 50.7061V47.9517H61.1485L61.1508 47.9551ZM56.6919 57.6983C56.6919 56.0351 56.1692 54.6539 55.1249 53.558C54.0807 52.4622 52.7258 51.9143 51.0626 51.9143C49.3993 51.9143 47.978 52.4794 46.8707 53.6096C45.7634 54.7398 45.2097 56.1715 45.2097 57.9047C45.2097 59.4888 45.7714 60.8254 46.897 61.9155C48.0215 63.0055 49.3867 63.5512 50.9938 63.5512C52.6008 63.5512 54.0234 62.9998 55.0905 61.8983C56.1577 60.7967 56.6919 59.396 56.6919 57.6983Z" fill="white"/>
<path d="M65.2923 76.6712L70.102 65.6694L62.9413 47.9562H68.2783L72.7544 60.4711L77.4369 47.9562H82.7567L70.3817 76.6724H65.2946L65.2923 76.6712Z" fill="white"/>
<path d="M21.4409 72.2867V72.8071H20.0998V73.6325H21.128V74.1437H20.0998V75.5032H19.4544V72.2867H21.4409Z" fill="white"/>
<path d="M24.1736 75.3243C23.9214 75.1834 23.7219 74.9873 23.5741 74.7363C23.4262 74.4864 23.3528 74.2022 23.3528 73.8858C23.3528 73.5694 23.4262 73.2909 23.5741 73.0398C23.7219 72.7888 23.9214 72.5939 24.1736 72.4518C24.4257 72.3108 24.702 72.2397 25.0035 72.2397C25.3049 72.2397 25.5846 72.3108 25.8357 72.4518C26.0867 72.5928 26.2838 72.7888 26.4306 73.0398C26.5761 73.2897 26.6495 73.5717 26.6495 73.8858C26.6495 74.1999 26.5761 74.4853 26.4306 74.7363C26.285 74.9873 26.0855 75.1822 25.8334 75.3243C25.5812 75.4653 25.3049 75.5364 25.0035 75.5364C24.702 75.5364 24.4257 75.4653 24.1736 75.3243ZM25.5147 74.8292C25.6626 74.742 25.7772 74.616 25.8597 74.4532C25.9423 74.2904 25.9847 74.1013 25.9847 73.8858C25.9847 73.6703 25.9434 73.4823 25.8597 73.3207C25.7772 73.1591 25.6614 73.0353 25.5147 72.9493C25.3668 72.8633 25.1972 72.8198 25.0035 72.8198C24.8097 72.8198 24.639 72.8633 24.4899 72.9493C24.3409 73.0353 24.2252 73.1591 24.1415 73.3207C24.0578 73.4823 24.0177 73.6703 24.0177 73.8858C24.0177 74.1013 24.0589 74.2904 24.1415 74.4532C24.224 74.616 24.3409 74.7409 24.4899 74.8292C24.639 74.9163 24.8109 74.961 25.0035 74.961C25.196 74.961 25.368 74.9174 25.5147 74.8292Z" fill="white"/>
<path d="M29.3765 72.2867V74.2778C29.3765 74.4956 29.4338 74.6629 29.5472 74.7776C29.6607 74.8922 29.8212 74.9507 30.0264 74.9507C30.2316 74.9507 30.3966 74.8933 30.5101 74.7776C30.6236 74.6629 30.6809 74.4956 30.6809 74.2778V72.2867H31.3308V74.2732C31.3308 74.5472 31.2712 74.7776 31.1532 74.9667C31.0351 75.1558 30.8769 75.298 30.6786 75.3931C30.4803 75.4883 30.2602 75.5364 30.0172 75.5364C29.7742 75.5364 29.5599 75.4894 29.365 75.3931C29.1701 75.298 29.0154 75.1558 28.9019 74.9667C28.7884 74.7776 28.7311 74.546 28.7311 74.2732V72.2867H29.3765Z" fill="white"/>
<path d="M36.3182 75.5031H35.6729L34.2114 73.2954V75.5031H33.566V72.281H34.2114L35.6729 74.4933V72.281H36.3182V75.5031Z" fill="white"/>
<path d="M40.5835 72.485C40.8402 72.6168 41.0385 72.8048 41.1784 73.0501C41.3182 73.2954 41.3882 73.5774 41.3882 73.9006C41.3882 74.2239 41.3182 74.5047 41.1784 74.7466C41.0385 74.9884 40.8402 75.1741 40.5835 75.3059C40.3267 75.4378 40.0298 75.5043 39.6917 75.5043H38.5672V72.2878H39.6917C40.0298 72.2878 40.3267 72.3543 40.5835 72.4861V72.485ZM40.4517 74.6789C40.6362 74.4944 40.7279 74.2353 40.7279 73.8995C40.7279 73.5636 40.6362 73.3023 40.4517 73.1132C40.2671 72.924 40.0058 72.83 39.6688 72.83H39.2125V74.9552H39.6688C40.0069 74.9552 40.2683 74.8635 40.4517 74.6789Z" fill="white"/>
<path d="M45.4574 74.891H44.1759L43.9638 75.5042H43.2864L44.443 72.2821H45.1938L46.3503 75.5042H45.6683L45.4563 74.891H45.4574ZM45.282 74.3752L44.8166 73.0295L44.3513 74.3752H45.282Z" fill="white"/>
<path d="M50.5869 72.2867V72.8071H49.7295V75.5032H49.0841V72.8071H48.2267V72.2867H50.5869Z" fill="white"/>
<path d="M53.315 72.2867V75.5032H52.6697V72.2867H53.315Z" fill="white"/>
<path d="M56.2277 75.3243C55.9755 75.1834 55.776 74.9873 55.6282 74.7363C55.4803 74.4864 55.407 74.2022 55.407 73.8858C55.407 73.5694 55.4803 73.2909 55.6282 73.0398C55.776 72.7888 55.9755 72.5939 56.2277 72.4518C56.4799 72.3097 56.7561 72.2397 57.0576 72.2397C57.359 72.2397 57.6387 72.3108 57.8898 72.4518C58.1396 72.5928 58.3379 72.7888 58.4847 73.0398C58.6302 73.2897 58.7036 73.5717 58.7036 73.8858C58.7036 74.1999 58.6302 74.4853 58.4847 74.7363C58.3391 74.9873 58.1396 75.1822 57.8875 75.3243C57.6353 75.4653 57.359 75.5364 57.0576 75.5364C56.7561 75.5364 56.4799 75.4653 56.2277 75.3243ZM57.5688 74.8292C57.7167 74.742 57.8313 74.616 57.915 74.4532C57.9987 74.2904 58.0399 74.1013 58.0399 73.8858C58.0399 73.6703 57.9987 73.4823 57.915 73.3207C57.8313 73.1591 57.7167 73.0353 57.5688 72.9493C57.4209 72.8633 57.2513 72.8198 57.0576 72.8198C56.8639 72.8198 56.6931 72.8633 56.544 72.9493C56.395 73.0353 56.2793 73.1591 56.1956 73.3207C56.1119 73.4823 56.0706 73.6703 56.0706 73.8858C56.0706 74.1013 56.1119 74.2904 56.1956 74.4532C56.2793 74.616 56.395 74.7409 56.544 74.8292C56.6931 74.9163 56.8639 74.961 57.0576 74.961C57.2513 74.961 57.4221 74.9174 57.5688 74.8292Z" fill="white"/>
<path d="M63.5466 75.5031H62.9012L61.4397 73.2954V75.5031H60.7944V72.281H61.4397L62.9012 74.4933V72.281H63.5466V75.5031Z" fill="white"/>
<defs>
<linearGradient id="paint0_linear_362_6692" x1="17.2375" y1="73.8079" x2="71.1027" y2="73.8079" gradientUnits="userSpaceOnUse">
<stop stop-color="#D4A555"/>
<stop offset="0.08" stop-color="#BF954C" stop-opacity="0.9"/>
<stop offset="0.33" stop-color="#806531" stop-opacity="0.58"/>
<stop offset="0.55" stop-color="#4E3E1C" stop-opacity="0.33"/>
<stop offset="0.75" stop-color="#2A230C" stop-opacity="0.15"/>
<stop offset="0.9" stop-color="#141203" stop-opacity="0.04"/>
<stop offset="1" stop-color="#0C0C00" stop-opacity="0"/>
</linearGradient>
</defs>
</svg>
