<svg width="100" height="100" viewBox="0 0 100 100" fill="none" xmlns="http://www.w3.org/2000/svg">
<g clip-path="url(#clip0_448_766)">
<path d="M47.7265 100H47.6563C45.4822 99.8948 43.308 99.6493 41.1806 99.2753L42.5482 91.5605C44.3366 91.8761 46.1601 92.0865 47.9836 92.1683H48.0771L47.8551 96.201L47.7265 100ZM54.2256 99.8831L53.571 92.0748C55.4062 91.9228 57.2414 91.6423 59.0298 91.2566L60.7013 98.9129C58.5739 99.3805 56.3998 99.7078 54.2256 99.8831ZM34.8217 97.7089C32.7411 97.0543 30.6955 96.2478 28.72 95.3127L32.0514 88.2174C33.7113 89.0006 35.4413 89.6785 37.1946 90.2279L34.8217 97.6972L34.8217 97.7089ZM66.9901 97.0894L64.325 89.7136C66.0432 89.0941 67.7498 88.346 69.3746 87.5044L72.9749 94.4594C71.0462 95.4646 69.024 96.3413 66.9784 97.0777L66.9901 97.0894ZM22.9807 92.1449C21.1455 90.9643 19.3805 89.6552 17.7089 88.2525L22.7703 82.2677C24.173 83.4483 25.6692 84.5587 27.2122 85.5523L22.9807 92.1449ZM78.5856 91.0929L74.1087 84.6639C75.6166 83.6119 77.066 82.4547 78.422 81.2157L83.6937 87.0134C82.0807 88.4746 80.3624 89.8539 78.5856 91.0929ZM13.0099 83.7171C11.5488 82.104 10.1695 80.3857 8.93045 78.609L15.3594 74.1204C16.4115 75.6283 17.5687 77.0777 18.8077 78.4337L13.0099 83.7171ZM88.2408 82.2911L82.256 77.2297C83.4483 75.827 84.5471 74.3308 85.5406 72.7878L92.1333 77.031C90.9527 78.8662 89.6435 80.6312 88.2408 82.2911ZM5.54062 73.0099C4.53536 71.0812 3.65868 69.059 2.91058 67.0134L10.2747 64.3483C10.8942 66.0666 11.6423 67.7732 12.4839 69.398L5.52893 73.0099H5.54062ZM95.3127 71.3033L88.2174 67.9719C89.0006 66.3121 89.6785 64.5821 90.2396 62.8288L97.7089 65.2016C97.0543 67.2823 96.2478 69.3279 95.3127 71.3033ZM1.09877 60.7247C0.631211 58.5973 0.303917 56.4231 0.128581 54.249L7.93688 53.5944C8.08884 55.4296 8.36938 57.2648 8.75511 59.0532L1.09877 60.7247ZM99.2753 58.8428L91.5605 57.4635C91.8761 55.6633 92.0865 53.8165 92.18 51.9696L92.18 51.8761L100.012 52.2384L100.012 52.332C99.9065 54.5178 99.661 56.7037 99.2753 58.8311L99.2753 58.8428ZM7.83168 48.0304L6.6117e-07 47.7265L6.60684e-07 47.6914C0.105202 45.5055 0.350673 43.3314 0.724723 41.2157L8.43951 42.5833C8.1239 44.3717 7.9135 46.2069 7.83168 48.0304ZM92.0631 46.3705C91.9112 44.5354 91.6306 42.7002 91.2332 40.9117L98.8895 39.2285C99.3571 41.3559 99.6844 43.5301 99.8714 45.7043L92.0631 46.3705ZM9.76037 37.218L2.29106 34.8451C2.94565 32.7645 3.75219 30.7189 4.67563 28.7434L11.7709 32.0748C10.9877 33.7347 10.3098 35.4646 9.76037 37.218ZM89.7136 35.6166C89.0941 33.8983 88.346 32.1917 87.4927 30.5669L94.4477 26.955C95.4529 28.8837 96.3413 30.9059 97.0777 32.9515L89.7136 35.6283L89.7136 35.6166ZM14.436 27.2472L7.84337 23.0158C9.01227 21.1806 10.3214 19.4155 11.7358 17.744L17.7206 22.7937C16.54 24.1964 15.4296 25.6926 14.436 27.2355L14.436 27.2472ZM84.6289 25.8445C83.5769 24.3366 82.4196 22.8872 81.1806 21.5313L86.9667 16.2478C88.4395 17.8492 89.8071 19.5675 91.0579 21.3559L84.6289 25.8445ZM21.5546 18.8194L16.2712 13.0333C17.8843 11.5722 19.6026 10.1929 21.3793 8.94214L25.8679 15.3711C24.36 16.4231 22.9106 17.5804 21.5546 18.8194ZM77.1946 17.7089C75.7919 16.5283 74.2957 15.4179 72.7528 14.436L76.9842 7.83168C78.8194 9.00058 80.5845 10.3098 82.256 11.7124L77.2063 17.7089H77.1946ZM30.5903 12.519L26.9784 5.564C28.9071 4.55874 30.9293 3.67037 32.9749 2.93396L35.64 10.2981C33.9217 10.9176 32.2151 11.6657 30.5903 12.519ZM67.9135 11.7709C66.2536 10.9877 64.5237 10.3214 62.7703 9.76037L65.1315 2.29106C67.2122 2.94565 69.2577 3.75219 71.2332 4.67563L67.9018 11.7709H67.9135ZM40.9351 8.7668L39.2519 1.11046C41.3793 0.642899 43.5535 0.315605 45.7276 0.12858L46.3822 7.93688C44.547 8.08884 42.7119 8.36937 40.9234 8.7668H40.9351ZM57.405 8.43951C55.6283 8.1239 53.7931 7.92519 51.9813 7.83168H51.9112L52.2852 0H52.3553C54.5061 0.105202 56.6686 0.338983 58.7726 0.713033L57.405 8.42782L57.405 8.43951Z" fill="url(#paint0_linear_448_766)"/>
<path d="M50.0409 92.18C49.398 92.18 48.7434 92.1683 48.0889 92.1332L48.7318 78.3167C49.9708 78.3752 51.2098 78.3518 52.4372 78.2466L53.6178 92.028C52.4372 92.1332 51.2332 92.18 50.0526 92.18H50.0409ZM42.8989 91.5721L42.595 91.5254C40.7949 91.2098 38.9948 90.7656 37.2648 90.2162L41.4261 77.0309C42.5482 77.3816 43.7171 77.6738 44.8861 77.8842L45.0965 77.9193L43.834 84.7224L42.9106 91.5721H42.8989ZM59.0649 91.1981L56.0842 77.6972C57.2882 77.4284 58.4804 77.0894 59.6377 76.6686L64.36 89.6668C62.6301 90.298 60.8533 90.8124 59.0649 91.2098L59.0649 91.1981ZM32.1216 88.2057C30.4617 87.4225 28.8253 86.5342 27.2823 85.5406L34.7282 73.8866C35.7686 74.5529 36.8557 75.149 37.9778 75.675L32.1216 88.2057ZM69.4097 87.4342L63.0392 75.1607C64.138 74.5879 65.2017 73.945 66.2186 73.2437L74.1321 84.5821C72.6242 85.6341 71.0462 86.5926 69.4214 87.4342H69.4097ZM22.8288 82.2676C21.4261 81.087 20.0935 79.8012 18.8545 78.4453L29.0707 69.1174C29.9007 70.0292 30.8007 70.8942 31.7475 71.689L22.8288 82.2676ZM78.422 81.1455L69.1058 70.9292C70.0176 70.0993 70.8825 69.1993 71.6774 68.2524L82.2443 77.1712C81.0637 78.5739 79.7779 79.9065 78.422 81.1455ZM15.4062 74.1437C14.3542 72.6359 13.3957 71.0578 12.5541 69.433L24.8276 63.0508C25.4004 64.1496 26.0433 65.2133 26.7446 66.2302L15.4062 74.1437ZM85.5173 72.7294L73.8749 65.2717C74.5412 64.2314 75.1374 63.1443 75.6634 62.0339L88.194 67.8901C87.4109 69.5499 86.5225 71.1864 85.5289 72.7294H85.5173ZM10.3332 64.3834C9.70195 62.6534 9.18763 60.8766 8.7902 59.0882L22.2911 56.1075C22.5599 57.3115 22.8989 58.5038 23.3197 59.661L10.3215 64.3834H10.3332ZM90.1929 62.7469L77.0076 58.5856C77.3817 57.4167 77.6739 56.201 77.896 54.9737L91.5254 57.3115L91.5254 57.3816C91.1865 59.2051 90.7423 61.0052 90.1929 62.7469ZM7.97197 53.6294C7.86676 52.4371 7.82001 51.2332 7.82001 50.0409C7.82001 49.398 7.8317 48.7551 7.86676 48.1122L21.6832 48.7434C21.6599 49.1759 21.6482 49.6084 21.6482 50.0409C21.6482 50.8357 21.6832 51.654 21.7534 52.4488L7.97197 53.6294ZM92.1333 51.8527L78.3168 51.2332C78.3402 50.8124 78.3402 50.3799 78.3402 49.9591C78.3402 49.1525 78.3051 48.3343 78.235 47.5277L92.0164 46.3354C92.1216 47.5394 92.1683 48.7551 92.1683 49.9591C92.1683 50.5903 92.1566 51.2215 92.1216 51.8527H92.1333ZM22.069 45.1548L16.3764 44.0327L8.46291 42.6885L8.46291 42.6066H8.4746C8.7902 40.8065 9.23439 39.0181 9.78377 37.2881L22.9807 41.4377C22.6184 42.6066 22.3145 43.8106 22.1041 45.0263L22.0807 45.1548H22.069ZM77.6856 43.869C77.4167 42.6651 77.0661 41.4728 76.6453 40.3156L89.6435 35.5815C90.2747 37.2998 90.789 39.0882 91.1865 40.8766L77.6856 43.869ZM24.3133 37.9894L11.7826 32.1449C12.5541 30.4851 13.4541 28.8486 14.4477 27.3056L26.1017 34.7516C25.4354 35.7919 24.8393 36.879 24.3133 38.0011L24.3133 37.9894ZM75.1491 36.9257C74.5763 35.827 73.9334 34.7633 73.2204 33.7463L84.5587 25.8211C85.6108 27.329 86.5693 28.907 87.4109 30.5318L75.1491 36.9257ZM28.2876 31.7592L17.709 22.8521C18.8896 21.4494 20.1754 20.1169 21.5313 18.8778L30.8592 29.0941C29.9474 29.924 29.0824 30.824 28.2876 31.7709L28.2876 31.7592ZM70.8942 30.8591C70.0643 29.9474 69.1643 29.0824 68.2174 28.2875L77.1245 17.7089C78.5272 18.8895 79.8597 20.1753 81.0988 21.5312L70.8942 30.8591ZM33.7464 26.7679L25.8212 15.4295C27.3174 14.3775 28.9071 13.419 30.5319 12.5774L36.9141 24.8509C35.8153 25.4237 34.7516 26.0666 33.7347 26.7796L33.7464 26.7679ZM65.225 26.09C64.1847 25.4237 63.0976 24.8276 61.9755 24.3132L67.82 11.7826C69.4799 12.554 71.1163 13.4541 72.6593 14.4477L65.2133 26.1017L65.225 26.09ZM40.3156 23.343L35.5816 10.3448C37.2998 9.71359 39.0883 9.19927 40.8767 8.80184L43.8691 22.3027C42.6651 22.5716 41.4728 22.9222 40.3156 23.343ZM58.5389 22.969C57.3817 22.6066 56.1894 22.3144 54.9737 22.0923H54.9503L57.2882 8.45117H57.3583C59.1818 8.79015 60.9585 9.22265 62.6885 9.77203L58.5389 22.969ZM47.5278 21.7533L46.3355 7.97192C48.159 7.81996 50.0176 7.7732 51.8527 7.85503L51.2215 21.6715C49.9825 21.6131 48.7434 21.6364 47.5161 21.7416L47.5278 21.7533Z" fill="url(#paint1_linear_448_766)"/>
<path d="M50.0175 78.3635C49.6201 78.3635 49.211 78.3635 48.8135 78.3401L49.2694 67.7498C51.5955 67.855 53.91 67.4926 56.1075 66.6861L59.7311 76.6452C56.5984 77.779 53.3372 78.3635 50.0175 78.3635ZM38.0947 75.7218L38.0128 75.6867C34.6113 74.0853 31.6189 71.8877 29.1058 69.1291L36.9374 61.9871C38.5038 63.7054 40.374 65.0847 42.5131 66.0783L38.1063 75.7218H38.0947ZM69.1759 70.9175L62.0105 63.0976C63.7171 61.5312 65.0847 59.6727 66.0783 57.5569L66.1017 57.5102L75.6984 62.0222L70.9059 59.7662L75.6984 62.0339C74.097 65.4471 71.9111 68.4278 69.1759 70.9292L69.1759 70.9175ZM23.3898 59.661C22.2677 56.5517 21.6949 53.3021 21.6949 50.0058C21.6949 49.585 21.6949 49.1642 21.7183 48.7317L32.3086 49.2109C32.2969 49.4798 32.2852 49.737 32.2852 50.0058C32.2852 52.0631 32.6475 54.1087 33.3489 56.0491L23.3781 59.661H23.3898ZM78.3401 51.2682L67.7498 50.8007C67.7498 50.5435 67.7615 50.2863 67.7615 50.0409C67.7615 47.9719 67.3991 45.9263 66.6861 43.9742L76.6569 40.3506C77.7907 43.4716 78.3635 46.7329 78.3635 50.0409C78.3635 50.45 78.3635 50.8591 78.3401 51.2682ZM33.9217 42.6183L29.5967 40.4558L24.3483 38.0596L24.3834 37.9894C25.9731 34.5996 28.1706 31.6072 30.9176 29.1057L38.0713 36.9374C36.353 38.5038 34.9854 40.374 33.9801 42.5014L33.9217 42.6183ZM63.1093 38.0596C61.5429 36.353 59.6727 34.9737 57.557 33.9801L57.4985 33.9567L59.0298 30.789L61.9988 24.36L62.0572 24.3834C65.4354 25.9731 68.4278 28.1589 70.9292 30.9059L63.1093 38.0596ZM43.9859 33.3723L40.374 23.4015C43.8807 22.1274 47.5628 21.5663 51.2916 21.7299L50.824 32.3202C48.4862 32.215 46.1835 32.5774 43.9859 33.3723Z" fill="url(#paint2_linear_448_766)"/>
</g>
<defs>
<linearGradient id="paint0_linear_448_766" x1="6.92746e-07" y1="50.0058" x2="100.012" y2="50.0058" gradientUnits="userSpaceOnUse">
<stop offset="0.11" stop-color="#9BFFEC"/>
<stop offset="0.88" stop-color="#68C6DE"/>
</linearGradient>
<linearGradient id="paint1_linear_448_766" x1="7.82001" y1="50.0058" x2="92.18" y2="50.0058" gradientUnits="userSpaceOnUse">
<stop offset="0.11" stop-color="#9BFFEC"/>
<stop offset="0.88" stop-color="#68C6DE"/>
</linearGradient>
<linearGradient id="paint2_linear_448_766" x1="21.6949" y1="50.0175" x2="78.3752" y2="50.0175" gradientUnits="userSpaceOnUse">
<stop offset="0.11" stop-color="#9BFFEC"/>
<stop offset="0.88" stop-color="#68C6DE"/>
</linearGradient>
<clipPath id="clip0_448_766">
<rect width="100" height="100" fill="white"/>
</clipPath>
</defs>
</svg>
