<svg width="100" height="100" viewBox="0 0 100 100" fill="none" xmlns="http://www.w3.org/2000/svg">
<g clip-path="url(#clip0_448_1090)">
<path d="M100 78.0376L100 96.9433C100 98.6245 98.6398 99.9847 96.9586 99.9847H78.0529C76.3717 99.9847 75.0115 98.6245 75.0115 96.9433L75.0115 78.0376C75.0115 76.3564 73.6512 74.9962 71.97 74.9962H53.0643C51.3832 74.9962 50.0229 73.6359 50.0229 71.9548L50.0229 53.0491C50.0229 51.3679 48.6627 50.0076 46.9815 50.0076H28.0758C26.3946 50.0076 25.0344 51.3679 25.0344 53.0491L25.0344 96.9586C25.0344 98.6398 23.6742 100 21.993 100H3.04142C1.36023 100 1.36649e-06 98.6398 1.3432e-06 96.9586L7.34905e-07 53.0491C7.11615e-07 51.3679 1.36023 50.0076 3.04142 50.0076H21.9471C23.6283 50.0076 24.9885 48.6474 24.9885 46.9662L24.9885 28.0605C24.9885 26.3793 23.6283 25.0191 21.9471 25.0191H3.04142C1.36023 25.0191 3.27754e-07 23.6589 3.04464e-07 21.9777L4.21337e-08 3.04142C1.88437e-08 1.36023 1.36023 0 3.04142 0H21.9471C23.6283 0 24.9885 1.36023 24.9885 3.04142L24.9885 21.9471C24.9885 23.6283 26.3488 24.9885 28.03 24.9885H46.9357C48.6168 24.9885 49.9771 26.3488 49.9771 28.03L49.9771 46.9357C49.9771 48.6168 51.3373 49.9771 53.0185 49.9771H71.9242C73.6054 49.9771 74.9656 51.3373 74.9656 53.0185L74.9656 71.267C74.9656 73.315 76.6162 74.9656 78.6642 74.9656H96.928C98.6092 74.9656 99.9694 76.3258 99.9694 78.007L100 78.0376Z" fill="url(#paint0_linear_448_1090)"/>
<path d="M96.9586 0H78.0376C76.3578 0 74.9962 1.36169 74.9962 3.04142L74.9962 46.9662C74.9962 48.646 76.3578 50.0076 78.0376 50.0076H96.9586C98.6383 50.0076 100 48.646 100 46.9662L100 3.04142C100 1.36169 98.6383 0 96.9586 0Z" fill="url(#paint1_linear_448_1090)"/>
</g>
<defs>
<linearGradient id="paint0_linear_448_1090" x1="51.7347" y1="5.5632" x2="47.8832" y2="104.218" gradientUnits="userSpaceOnUse">
<stop stop-color="white"/>
<stop offset="0.09" stop-color="#F7F7F7"/>
<stop offset="0.22" stop-color="#E2E2E2"/>
<stop offset="0.38" stop-color="#C0C0C0"/>
<stop offset="0.56" stop-color="#909090"/>
<stop offset="0.76" stop-color="#535353"/>
<stop offset="0.97" stop-color="#0A0A0A"/>
<stop offset="1"/>
</linearGradient>
<linearGradient id="paint1_linear_448_1090" x1="87.4981" y1="59.8197" x2="87.4981" y2="-0.917012" gradientUnits="userSpaceOnUse">
<stop stop-color="white"/>
<stop offset="0.09" stop-color="#F7F7F7"/>
<stop offset="0.22" stop-color="#E2E2E2"/>
<stop offset="0.38" stop-color="#C0C0C0"/>
<stop offset="0.56" stop-color="#909090"/>
<stop offset="0.76" stop-color="#535353"/>
<stop offset="0.97" stop-color="#0A0A0A"/>
<stop offset="1"/>
</linearGradient>
<clipPath id="clip0_448_1090">
<rect width="100" height="100" fill="white"/>
</clipPath>
</defs>
</svg>
