<svg width="30" height="30" viewBox="0 0 30 30" fill="none" xmlns="http://www.w3.org/2000/svg">
<g clip-path="url(#clip0_327_3148)">
<path d="M28.2263 7.01369L22.9908 1.77825C21.8535 0.640891 20.3144 0 18.7077 0H11.3059C9.69911 0 8.15556 0.636377 7.0182 1.77373L1.77825 7.00918C0.640891 8.14653 0 9.68557 0 11.2968V18.6987C0 20.3054 0.636377 21.849 1.77373 22.9863L7.00918 28.2218C8.14653 29.3591 9.68557 30 11.2968 30H18.6987C20.3054 30 21.849 29.3636 22.9863 28.2263L28.2218 22.9908C29.3591 21.8535 30 20.3144 30 18.7032V11.3013C30 9.6946 29.3636 8.15104 28.2263 7.01369ZM27.274 18.0262C27.274 19.3396 26.7504 20.6033 25.8207 21.533L21.5375 25.8162C20.6078 26.7459 19.3441 27.2694 18.0307 27.2694H11.9738C10.6604 27.2694 9.39672 26.7459 8.46698 25.8162L4.18384 21.533C3.2541 20.6033 2.73056 19.3396 2.73056 18.0262V11.9693C2.73056 10.6559 3.2541 9.39221 4.18384 8.46246L8.46698 4.17933C9.39672 3.24959 10.6604 2.72604 11.9738 2.72604H18.0307C19.3441 2.72604 20.6078 3.24959 21.5375 4.17933L25.8207 8.46246C26.7504 9.39221 27.274 10.6559 27.274 11.9693V18.0262Z" fill="white"/>
<path d="M22.1333 21.8896H22.0521C20.7567 21.8896 19.4614 21.8896 18.1706 21.8896C18.1074 21.8896 18.0713 21.8715 18.0352 21.8219C17.295 20.7387 14.8714 17.2093 14.402 16.5277C14.393 16.5187 14.3839 16.5097 14.3749 16.4916C14.2395 16.6496 10.1369 21.4202 9.78487 21.8309C9.74876 21.8715 9.71265 21.8896 9.65398 21.8896C9.2884 21.8896 8.91831 21.8896 8.53017 21.8896C10.3084 19.8225 12.0731 17.7689 13.8423 15.7153C12.0731 13.1382 10.3084 10.5702 8.53468 7.98855C8.56627 7.98855 8.58433 7.98404 8.60689 7.98404C9.90673 7.98404 11.2111 7.98404 12.5109 7.98404C12.5696 7.98404 12.5967 8.01112 12.6237 8.05174C13.039 8.66104 16.0358 13.0164 16.09 13.0976C16.1938 12.9758 20.1926 8.32705 20.4453 8.0382C20.4679 8.01112 20.5085 7.98855 20.5401 7.98855C20.9057 7.98855 21.2713 7.98855 21.6368 7.98855C21.6504 7.98855 21.6594 7.98855 21.6865 7.98855C19.994 9.95636 18.3105 11.9106 16.6271 13.8739C18.4595 16.5458 20.2919 19.2132 22.1333 21.8941V21.8896ZM10.1685 8.8867C10.182 8.90927 10.1911 8.92281 10.2001 8.93635C10.8726 9.89768 17.6741 19.6284 18.6084 20.9734C18.64 21.0185 18.6716 21.032 18.7212 21.032C19.2809 21.032 19.845 21.032 20.4047 21.032C20.4273 21.032 20.4498 21.032 20.4859 21.032C20.4634 20.9959 20.4498 20.9779 20.4363 20.9598C19.6329 19.8134 12.4206 9.48697 12.0415 8.94989C12.0235 8.92281 11.9874 8.89573 11.9603 8.89573C11.3645 8.89573 10.7688 8.89573 10.1595 8.89573L10.1685 8.8867Z" fill="white"/>
</g>
<defs>
<clipPath id="clip0_327_3148">
<rect width="30" height="30" fill="white"/>
</clipPath>
</defs>
</svg>
