<svg width="100" height="100" viewBox="0 0 100 100" fill="none" xmlns="http://www.w3.org/2000/svg">
<g clip-path="url(#clip0_448_472)">
<path d="M2.0831 46.961C1.97045 47.4713 1.8578 47.9711 1.75539 48.471C1.44816 49.8977 1.13069 51.3452 0.854184 52.8031C5.29875 54.2715 9.75355 55.3857 14.28 55.2712C14.4849 53.9174 14.7614 52.3033 15.1403 50.3871C15.2325 49.8977 15.3246 49.429 15.4168 48.9813C10.921 49.3145 6.49694 48.3564 2.09334 46.9714L2.0831 46.961ZM29.1806 61.6757C28.9143 62.0193 28.6174 62.3526 28.2999 62.6858C27.4294 63.5814 26.0162 65.0081 23.7632 65.6433C22.6879 65.9453 21.4897 66.0495 20.312 65.9453C19.124 66.3098 17.9156 66.5806 16.6559 66.7472C11.1361 67.4553 5.72887 66.1015 0.352378 64.2999C0.772256 66.4868 1.6325 68.5384 3.09695 70.3816C3.49634 70.8815 3.92646 71.3501 4.37707 71.7666C8.43247 72.8809 12.5084 73.5057 16.6559 72.9746C26.8662 71.6729 34.5878 62.7275 44.1836 59.7595C44.9619 57.4893 45.5251 55.2087 46.0372 53.0322C39.9438 54.3652 34.6697 58.3224 29.1908 61.6653L29.1806 61.6757ZM16.6457 75.703C15.3041 75.8697 13.9728 75.9217 12.6517 75.8801C15.7752 76.5778 18.7041 76.5882 20.4348 76.5986C22.9746 76.609 29.0372 76.6507 34.8541 72.7768C38.7866 70.1525 41.2547 66.643 42.9444 62.9045C33.9119 66.2161 26.4156 74.4534 16.6457 75.703ZM47.5836 34.8601C42.9444 35.5058 38.8071 37.7448 34.7517 40.2649C34.8336 41.8895 34.4547 43.5973 34.0041 45.6697C33.9017 46.1279 33.7993 46.6173 33.6764 47.1693C38.2438 44.2846 42.8727 41.5979 48.1571 41.0251C48.2697 38.8903 48.1263 36.8284 47.5733 34.8601H47.5836ZM33.0107 50.3142C32.7035 51.7721 32.3451 53.4696 31.9149 55.4795C31.8228 55.9897 31.6589 56.7291 31.3722 57.5935C36.2776 54.4797 41.1318 51.2306 46.6721 50.1997C47.1637 48.0232 47.6143 45.8675 47.901 43.7744C42.4631 44.4408 37.7215 47.3255 33.0005 50.3142H33.0107ZM14.4644 63.0503C14.0035 62.415 13.5632 61.5507 13.9216 57.9788C9.3644 58.0413 4.87887 56.8645 0.413824 55.3649C0.106596 57.4268 -0.0675002 59.4784 0.0246682 61.4674C5.14514 63.2065 10.2861 64.5499 15.5192 64.1437C15.13 63.8209 14.7716 63.4564 14.4746 63.0503H14.4644ZM45.5661 30.5905C44.6342 29.2679 43.5486 28.1849 42.3914 27.2997C38.1824 28.9451 34.3011 31.611 30.3481 34.0895C30.983 34.2874 31.6487 34.5998 32.2734 35.0997C32.5089 35.2871 33.4818 36.089 34.1679 37.6719C34.1987 37.7344 34.2191 37.7968 34.2499 37.8593C38.1824 35.4017 42.1661 33.1419 46.6004 32.2984C46.3034 31.7152 45.9655 31.1424 45.5763 30.5905H45.5661ZM16.6457 39.89C12.5391 40.4107 8.49392 39.7963 4.47947 38.7133C3.72165 40.6086 3.15839 42.5351 2.68731 44.4304C7.08067 45.7738 11.5048 46.6486 16.0005 46.2008C16.7788 42.7538 17.4138 40.8481 17.9668 39.6817C17.5264 39.765 17.0861 39.8379 16.6457 39.89ZM31.577 23.2696C30.092 23.0405 20.8138 21.7492 12.5698 27.8621C9.30295 30.2885 7.11139 33.1939 5.56501 36.2764C9.22103 37.1824 12.9078 37.651 16.6457 37.172C18.2023 36.9741 19.7077 36.5993 21.162 36.089C22.3601 35.2142 24.0089 34.2874 25.9957 33.9333C30.6963 31.4236 35.1101 28.0391 39.8517 25.7064C36.636 24.0506 33.3487 23.5404 31.5872 23.2696H31.577ZM47.5836 34.8601C42.9444 35.5058 38.8071 37.7448 34.7517 40.2649C34.8336 41.8895 34.4547 43.5973 34.0041 45.6697C33.9017 46.1279 33.7993 46.6173 33.6764 47.1693C38.2438 44.2846 42.8727 41.5979 48.1571 41.0251C48.2697 38.8903 48.1263 36.8284 47.5733 34.8601H47.5836ZM33.0107 50.3142C32.7035 51.7721 32.3451 53.4696 31.9149 55.4795C31.8228 55.9897 31.6589 56.7291 31.3722 57.5935C36.2776 54.4797 41.1318 51.2306 46.6721 50.1997C47.1637 48.0232 47.6143 45.8675 47.901 43.7744C42.4631 44.4408 37.7215 47.3255 33.0005 50.3142H33.0107ZM47.5836 34.8601C42.9444 35.5058 38.8071 37.7448 34.7517 40.2649C34.8336 41.8895 34.4547 43.5973 34.0041 45.6697C33.9017 46.1279 33.7993 46.6173 33.6764 47.1693C38.2438 44.2846 42.8727 41.5979 48.1571 41.0251C48.2697 38.8903 48.1263 36.8284 47.5733 34.8601H47.5836ZM33.0107 50.3142C32.7035 51.7721 32.3451 53.4696 31.9149 55.4795C31.8228 55.9897 31.6589 56.7291 31.3722 57.5935C36.2776 54.4797 41.1318 51.2306 46.6721 50.1997C47.1637 48.0232 47.6143 45.8675 47.901 43.7744C42.4631 44.4408 37.7215 47.3255 33.0005 50.3142H33.0107ZM47.5836 34.8601C42.9444 35.5058 38.8071 37.7448 34.7517 40.2649C34.8336 41.8895 34.4547 43.5973 34.0041 45.6697C33.9017 46.1279 33.7993 46.6173 33.6764 47.1693C38.2438 44.2846 42.8727 41.5979 48.1571 41.0251C48.2697 38.8903 48.1263 36.8284 47.5733 34.8601H47.5836ZM33.0107 50.3142C32.7035 51.7721 32.3451 53.4696 31.9149 55.4795C31.8228 55.9897 31.6589 56.7291 31.3722 57.5935C36.2776 54.4797 41.1318 51.2306 46.6721 50.1997C47.1637 48.0232 47.6143 45.8675 47.901 43.7744C42.4631 44.4408 37.7215 47.3255 33.0005 50.3142H33.0107ZM33.0107 50.3142C32.7035 51.7721 32.3451 53.4696 31.9149 55.4795C31.8228 55.9897 31.6589 56.7291 31.3722 57.5935C36.2776 54.4797 41.1318 51.2306 46.6721 50.1997C47.1637 48.0232 47.6143 45.8675 47.901 43.7744C42.4631 44.4408 37.7215 47.3255 33.0005 50.3142H33.0107ZM33.0107 50.3142C32.7035 51.7721 32.3451 53.4696 31.9149 55.4795C31.8228 55.9897 31.6589 56.7291 31.3722 57.5935C36.2776 54.4797 41.1318 51.2306 46.6721 50.1997C47.1637 48.0232 47.6143 45.8675 47.901 43.7744C42.4631 44.4408 37.7215 47.3255 33.0005 50.3142H33.0107ZM76.7702 54.9588C69.0895 53.605 63.4058 47.3359 56.2986 44.7428L55.1004 50.585C59.9546 52.0221 64.1022 55.3128 68.5468 57.9059L79.5455 57.833C84.2563 57.4268 88.2401 56.2293 91.4148 54.1257C86.5606 55.0525 81.5118 55.7919 76.7702 54.9588ZM52.8064 61.7381L50.1438 74.6512C50.195 75.3594 50.4817 75.8592 51.3727 75.9009H62.013C62.904 75.7655 63.5492 75.2344 63.8052 74.0785L65.1365 67.4657C61.2347 64.9768 57.3739 62.4463 52.8064 61.7381ZM54.5679 53.1572L53.339 59.1139C57.8552 59.9678 61.7058 62.5713 65.6179 65.0601L66.7341 59.5304C62.7914 57.0728 58.9817 54.3235 54.5679 53.1572ZM96.3714 44.2013C91.7937 45.0657 86.8576 46.232 82.0443 46.357C80.9485 46.9297 79.5762 47.315 77.8865 47.4608H69.0793L69.919 43.4932C65.8636 41.3271 62.1359 38.3696 57.9986 36.4951L56.8209 42.2331C63.6823 44.9303 69.2841 50.9286 76.7702 52.2512C82.7817 53.3134 89.2949 51.8346 95.2551 50.6683C96.8015 48.773 97.9894 46.4715 98.7882 43.7535C97.9792 43.9097 97.1804 44.0659 96.3714 44.2221L96.3714 44.2013ZM99.7816 34.5894C98.6449 34.8081 97.5081 35.0372 96.3714 35.2455C92.9919 35.8911 89.428 36.6826 85.8437 37.1095C86.1714 38.0676 86.2226 39.3277 85.8232 40.9314C85.6389 41.8374 85.3624 42.6809 84.963 43.4411C88.834 43.0558 92.7154 42.1706 96.3714 41.4833C97.4159 41.2855 98.4605 41.0772 99.5051 40.8793C100.079 38.505 100.13 36.4118 99.7816 34.5894ZM82.3413 23.9361H62.2793C61.0709 24.1131 60.4462 24.7796 60.2106 25.7689L60.1799 25.9147C65.3413 28.7473 70.0522 32.8086 75.869 34.152H81.2558C81.9112 34.152 82.7202 34.277 83.4985 34.6206C87.8509 34.329 92.2545 33.3189 96.3714 32.5379C97.2419 32.3713 98.1021 32.2046 98.9726 32.038C96.1973 26.0084 88.363 23.7799 82.3413 23.9361ZM59.6781 28.3619L58.5106 34.0062C62.6173 35.9744 66.345 38.9319 70.4311 41.0355L71.619 35.3808C67.451 33.4647 63.713 30.4968 59.6679 28.3515L59.6781 28.3619ZM33.0107 50.3142C32.7035 51.7721 32.3451 53.4696 31.9149 55.4795C31.8228 55.9897 31.6589 56.7291 31.3722 57.5935C36.2776 54.4797 41.1318 51.2306 46.6721 50.1997C47.1637 48.0232 47.6143 45.8675 47.901 43.7744C42.4631 44.4408 37.7215 47.3255 33.0005 50.3142H33.0107ZM33.0107 50.3142C32.7035 51.7721 32.3451 53.4696 31.9149 55.4795C31.8228 55.9897 31.6589 56.7291 31.3722 57.5935C36.2776 54.4797 41.1318 51.2306 46.6721 50.1997C47.1637 48.0232 47.6143 45.8675 47.901 43.7744C42.4631 44.4408 37.7215 47.3255 33.0005 50.3142H33.0107ZM33.0107 50.3142C32.7035 51.7721 32.3451 53.4696 31.9149 55.4795C31.8228 55.9897 31.6589 56.7291 31.3722 57.5935C36.2776 54.4797 41.1318 51.2306 46.6721 50.1997C47.1637 48.0232 47.6143 45.8675 47.901 43.7744C42.4631 44.4408 37.7215 47.3255 33.0005 50.3142H33.0107ZM47.5836 34.8601C42.9444 35.5058 38.8071 37.7448 34.7517 40.2649C34.8336 41.8895 34.4547 43.5973 34.0041 45.6697C33.9017 46.1279 33.7993 46.6173 33.6764 47.1693C38.2438 44.2846 42.8727 41.5979 48.1571 41.0251C48.2697 38.8903 48.1263 36.8284 47.5733 34.8601H47.5836ZM33.0107 50.3142C32.7035 51.7721 32.3451 53.4696 31.9149 55.4795C31.8228 55.9897 31.6589 56.7291 31.3722 57.5935C36.2776 54.4797 41.1318 51.2306 46.6721 50.1997C47.1637 48.0232 47.6143 45.8675 47.901 43.7744C42.4631 44.4408 37.7215 47.3255 33.0005 50.3142H33.0107ZM47.5836 34.8601C42.9444 35.5058 38.8071 37.7448 34.7517 40.2649C34.8336 41.8895 34.4547 43.5973 34.0041 45.6697C33.9017 46.1279 33.7993 46.6173 33.6764 47.1693C38.2438 44.2846 42.8727 41.5979 48.1571 41.0251C48.2697 38.8903 48.1263 36.8284 47.5733 34.8601H47.5836ZM33.0107 50.3142C32.7035 51.7721 32.3451 53.4696 31.9149 55.4795C31.8228 55.9897 31.6589 56.7291 31.3722 57.5935C36.2776 54.4797 41.1318 51.2306 46.6721 50.1997C47.1637 48.0232 47.6143 45.8675 47.901 43.7744C42.4631 44.4408 37.7215 47.3255 33.0005 50.3142H33.0107Z" fill="#FF0420"/>
</g>
<defs>
<clipPath id="clip0_448_472">
<rect width="100" height="100" fill="white"/>
</clipPath>
</defs>
</svg>
