<svg width="100" height="100" viewBox="0 0 100 100" fill="none" xmlns="http://www.w3.org/2000/svg">
<g clip-path="url(#clip0_448_277)">
<path d="M86.1664 -7.62939e-06H13.8336C6.19351 -7.62939e-06 8.58005e-08 6.1935 1.91641e-07 13.8336L1.19369e-06 86.1664C1.29953e-06 93.8065 6.19351 100 13.8336 100H86.1664C93.8065 100 100 93.8065 100 86.1664L100 13.8336C100 6.1935 93.8065 -7.62939e-06 86.1664 -7.62939e-06Z" fill="white"/>
<path d="M50 34C41.1745 34 34 41.1745 34 50C34 58.8255 41.1745 66 50 66C58.8255 66 66 58.8255 66 50C66 41.1745 58.8255 34 50 34ZM50 60.0863C44.4465 60.0863 39.9137 55.5685 39.9137 50C39.9137 44.4315 44.4315 39.9137 50 39.9137C55.5685 39.9137 60.0863 44.4315 60.0863 50C60.0863 55.5685 55.5685 60.0863 50 60.0863Z" fill="black"/>
<path d="M16.4365 46.0653L8 46.0947L8 54.0082L16.4365 53.9788C18.3096 69.1293 30.7817 81.1908 46.4822 83L46.4822 77.1604C32.7614 75.2336 22.1929 63.8045 22.1929 50.0368C22.1929 36.269 33.0355 24.5311 47 22.8395L47 17C31.0711 18.6033 18.3249 30.7531 16.4365 46.08L16.4365 46.0653Z" fill="black"/>
<path d="M83.4586 44.5614C81.0526 30.2206 69.2632 18.9455 54.5113 17L54.5113 22.866C67.8045 25.0031 77.985 36.3519 77.985 49.9705C77.985 63.5891 67.5489 75.2327 54 77.1487L54 83C69.985 81.1282 82.6015 68.335 83.8195 52.4614H92L92 44.5319H83.4586L83.4586 44.5614Z" fill="black"/>
</g>
<defs>
<clipPath id="clip0_448_277">
<rect width="100" height="100" fill="white"/>
</clipPath>
</defs>
</svg>
