<svg width="100" height="100" viewBox="0 0 100 100" fill="none" xmlns="http://www.w3.org/2000/svg">
<g clip-path="url(#clip0_448_345)">
<path d="M80 5.99999H19L19 93H80L80 5.99999Z" fill="white"/>
<path d="M68.2996 34.5214L32.2872 46.2921C31.8484 46.4355 31.6089 46.9075 31.7524 47.3463L32.1017 48.4152C32.2452 48.854 32.7171 49.0935 33.1559 48.95L69.1684 37.1794C69.6072 37.0359 69.8466 36.564 69.7032 36.1252L69.3538 35.0562C69.2104 34.6174 68.7384 34.378 68.2996 34.5214Z" fill="url(#paint0_linear_448_345)"/>
<path d="M68.305 43.0075L32.2926 54.7782C31.8538 54.9216 31.6144 55.3936 31.7578 55.8324L32.1072 56.9013C32.2506 57.3401 32.7226 57.5795 33.1614 57.4361L69.1738 45.6655C69.6126 45.522 69.852 45.0501 69.7086 44.6113L69.3592 43.5423C69.2158 43.1035 68.7438 42.8641 68.305 43.0075Z" fill="url(#paint1_linear_448_345)"/>
<path d="M68.3031 51.3628L32.2907 63.1335C31.8519 63.2769 31.6124 63.7489 31.7558 64.1877L32.1052 65.2566C32.2487 65.6954 32.7206 65.9349 33.1594 65.7914L69.1719 54.0208C69.6106 53.8773 69.8501 53.4054 69.7067 52.9666L69.3573 51.8976C69.2139 51.4588 68.7419 51.2194 68.3031 51.3628Z" fill="url(#paint2_linear_448_345)"/>
<path d="M70.9373 91.3425C75.7784 90.3003 78.321 83.0364 76.6163 75.1183C74.9115 67.2002 69.6051 61.6262 64.7639 62.6685C59.9228 63.7107 57.3802 70.9746 59.085 78.8927C60.7897 86.8108 66.0962 92.3848 70.9373 91.3425Z" fill="url(#paint3_linear_448_345)"/>
<path d="M89 20.0303L89 88.6666C89 96.8636 85.901 100 77.7984 100H45.1157C33.6873 100 22.2589 100 10.8155 99.9697C6.58273 99.9697 2.89421 98.7273 0.929013 94.5606C-1.50481 89.3788 0.98948 83.7121 6.70366 81.5L63.9211 62.9091C50.9054 69.6818 66.9142 97.2121 76.7402 92.5909C80.3229 90.5454 79.9148 84.3333 79.9148 82.6515C79.9147 69.9545 79.9147 57.2576 79.9147 44.5454C79.9147 40.5606 78.6298 37.1212 76.5286 34.4545C73.6412 30.7727 69.212 28.5909 64.5862 28.5909C64.1025 28.5909 63.6187 28.6212 63.135 28.6667C62.6513 28.7273 62.228 28.803 61.8501 28.8788C61.7745 28.8788 61.6838 28.9091 61.6233 28.9242L88.9698 20L89 20.0303Z" fill="url(#paint4_linear_448_345)"/>
<path d="M35.2621 37.3245C40.1033 36.2822 42.6458 29.0184 40.9411 21.1003C39.2364 13.1821 33.9299 7.60816 29.0888 8.65043C24.2476 9.6927 21.7051 16.9565 23.4098 24.8747C25.1145 32.7928 30.421 38.3668 35.2621 37.3245Z" fill="url(#paint5_linear_448_345)"/>
<path d="M93.3126 18.5054L36.1049 37.0992C49.1183 30.3254 33.1123 2.79074 23.2879 7.41269C19.7059 9.45847 20.1139 15.6716 20.1139 17.3537C20.1139 30.0527 20.1139 42.7516 20.1139 55.4506C20.1139 59.4664 21.4138 62.9367 23.5298 65.5886C26.4166 69.2407 30.83 71.4077 35.4399 71.4077C35.9084 71.4077 36.4072 71.3774 36.8757 71.3319C37.3594 71.2713 37.7826 71.1956 38.1453 71.1198C38.2209 71.1046 38.3116 71.0895 38.3871 71.0592L11 80L11 70.5288L11.0302 11.3527C11.0302 3.13928 14.1287 0.002417 22.2299 0.002417H54.9071C66.3335 0.002417 77.76 -0.0127369 89.1864 0.0327248C93.4184 0.0327248 97.1063 1.27535 99.0711 5.44268C101.505 10.6253 99.0107 16.2929 93.2975 18.5054H93.3126Z" fill="url(#paint6_linear_448_345)"/>
</g>
<defs>
<linearGradient id="paint0_linear_448_345" x1="76.8941" y1="17.8668" x2="41.7727" y2="79.1809" gradientUnits="userSpaceOnUse">
<stop offset="0.25" stop-color="#E3D1B9"/>
<stop offset="0.8" stop-color="#B69164"/>
</linearGradient>
<linearGradient id="paint1_linear_448_345" x1="76.8991" y1="26.3517" x2="41.7688" y2="87.6566" gradientUnits="userSpaceOnUse">
<stop offset="0.25" stop-color="#E3D1B9"/>
<stop offset="0.8" stop-color="#B69164"/>
</linearGradient>
<linearGradient id="paint2_linear_448_345" x1="76.8959" y1="34.703" x2="41.7656" y2="96.0078" gradientUnits="userSpaceOnUse">
<stop offset="0.25" stop-color="#E3D1B9"/>
<stop offset="0.8" stop-color="#B69164"/>
</linearGradient>
<linearGradient id="paint3_linear_448_345" x1="162.402" y1="82.4594" x2="132.349" y2="93.968" gradientUnits="userSpaceOnUse">
<stop offset="0.25" stop-color="#E3D1B9"/>
<stop offset="0.8" stop-color="#B69164"/>
</linearGradient>
<linearGradient id="paint4_linear_448_345" x1="44.3296" y1="104.939" x2="45.5901" y2="-1.56054" gradientUnits="userSpaceOnUse">
<stop offset="0.25" stop-color="#E3D1B9"/>
<stop offset="1" stop-color="#B69164"/>
</linearGradient>
<linearGradient id="paint5_linear_448_345" x1="6.48855" y1="27.4674" x2="36.5553" y2="15.9594" gradientUnits="userSpaceOnUse">
<stop offset="0.25" stop-color="#E3D1B9"/>
<stop offset="0.8" stop-color="#B69164"/>
</linearGradient>
<linearGradient id="paint6_linear_448_345" x1="55.4966" y1="0.260034" x2="55.4966" y2="89.4863" gradientUnits="userSpaceOnUse">
<stop offset="0.25" stop-color="#E3D1B9"/>
<stop offset="1" stop-color="#B69164"/>
</linearGradient>
<clipPath id="clip0_448_345">
<rect width="100" height="100" fill="white"/>
</clipPath>
</defs>
</svg>
