<svg width="226" height="308" viewBox="0 0 226 308" fill="none" xmlns="http://www.w3.org/2000/svg">
<g clip-path="url(#clip0_340_3486)">
<path d="M2.53 11.22L9.56 4.19H64.62L74.7 14.28H146.19L157.46 3H215.53L225.3 12.78V296.57L215.88 305.99H143.92L136.5 298.56H16.13L1.2 283.63V12.58L2.53 11.22Z" fill="url(#paint0_linear_340_3486)"/>
<path opacity="0.22" d="M215.53 2.39001L216.9 290.03L209.91 297.02H153.63H128.99L125.24 298.01H136.5L143.89 305.41H215.88L225.31 295.97V12.16L215.53 2.39001Z" fill="#FFB600"/>
<path d="M70.88 4.32L77.28 10.73H121.72L130.08 2.37H69L70.88 4.32Z" fill="#D4A555"/>
<path d="M133.76 2.38L125.3 10.73H132.86L141.22 2.37" fill="#D4A555"/>
<path d="M144.15 2.38L135.69 10.73H143.25L151.61 2.37" fill="#D4A555"/>
<path d="M50.61 3.73001L42.18 12.19H11.82L6.95 17.06V288.59L1.28 282.93V11.97L9.61 3.64001L50.61 3.73001Z" fill="#705124"/>
<path d="M214.28 5L222.3 13.06V295.68L214.64 303.38H143.25L138.75 298.3L137.85 297.29H17.37L4.19 284.05V12.84L4.65 12.37L10.79 6.2H63.36L72.56 15.45L73.44 16.33H147.42L148.3 15.45L158.69 5.01H214.26M215.51 2.01H157.45L146.18 13.33H74.69L64.62 3.2H9.56L2.53 10.25L1.2 11.62V285.29L16.13 300.29H136.5L141.9 306.38H215.89L225.31 296.92V11.82L215.54 2L215.51 2.01Z" fill="url(#paint1_linear_340_3486)"/>
<path d="M1 291.24L12.25 302.53H115.21L118.8 306.12L1 306.24V291.24Z" fill="url(#paint2_linear_340_3486)"/>
<path d="M117.64 302.49L121.2 306.05H124.37L120.71 302.39H117.57L117.65 302.5L117.64 302.49Z" fill="url(#paint3_linear_340_3486)"/>
<path d="M122.83 302.49L126.39 306.05H129.56L125.9 302.39H122.76L122.84 302.5L122.83 302.49Z" fill="url(#paint4_linear_340_3486)"/>
<path d="M127.55 302.49L131.11 306.05H134.28L130.62 302.39H127.48L127.56 302.5L127.55 302.49Z" fill="url(#paint5_linear_340_3486)"/>
<path d="M132.28 302.49L135.84 306.05H139.01L135.35 302.39H132.21L132.29 302.5L132.28 302.49Z" fill="url(#paint6_linear_340_3486)"/>
</g>
<defs>
<linearGradient id="paint0_linear_340_3486" x1="5.93" y1="3.94999" x2="225.51" y2="299.1" gradientUnits="userSpaceOnUse">
<stop stop-color="#D4A555"/>
<stop offset="0.03" stop-color="#D9AB59" stop-opacity="0.84"/>
<stop offset="0.06" stop-color="#E0B35E" stop-opacity="0.64"/>
<stop offset="0.1" stop-color="#E6B963" stop-opacity="0.47"/>
<stop offset="0.15" stop-color="#EBBF67" stop-opacity="0.32"/>
<stop offset="0.2" stop-color="#EFC46A" stop-opacity="0.2"/>
<stop offset="0.25" stop-color="#F2C76C" stop-opacity="0.11"/>
<stop offset="0.31" stop-color="#F4CA6E" stop-opacity="0.05"/>
<stop offset="0.39" stop-color="#F5CB6F" stop-opacity="0.01"/>
<stop offset="0.53" stop-color="#F6CC70" stop-opacity="0"/>
<stop offset="0.66" stop-color="#F5CB6F" stop-opacity="0.01"/>
<stop offset="0.73" stop-color="#F4CA6E" stop-opacity="0.05"/>
<stop offset="0.78" stop-color="#F2C76D" stop-opacity="0.11"/>
<stop offset="0.83" stop-color="#EFC46A" stop-opacity="0.2"/>
<stop offset="0.87" stop-color="#EBBF67" stop-opacity="0.32"/>
<stop offset="0.91" stop-color="#E6BA63" stop-opacity="0.46"/>
<stop offset="0.94" stop-color="#E0B35E" stop-opacity="0.63"/>
<stop offset="0.97" stop-color="#DAAB59" stop-opacity="0.82"/>
<stop offset="1" stop-color="#D4A555"/>
</linearGradient>
<linearGradient id="paint1_linear_340_3486" x1="-1.04001" y1="12.07" x2="233.24" y2="291.84" gradientUnits="userSpaceOnUse">
<stop stop-color="#D4A555"/>
<stop offset="0.04" stop-color="#C5994F"/>
<stop offset="0.11" stop-color="#A07C40"/>
<stop offset="0.2" stop-color="#634D27"/>
<stop offset="0.32" stop-color="#100C06"/>
<stop offset="0.34"/>
<stop offset="0.36" stop-color="#0A0804"/>
<stop offset="0.49" stop-color="#5F4A26"/>
<stop offset="0.59" stop-color="#9E7B3F"/>
<stop offset="0.66" stop-color="#C5994F"/>
<stop offset="0.7" stop-color="#D4A555"/>
<stop offset="0.84" stop-color="#6B542B"/>
<stop offset="0.95" stop-color="#1E170C"/>
<stop offset="1"/>
</linearGradient>
<linearGradient id="paint2_linear_340_3486" x1="-14.91" y1="286.77" x2="199.1" y2="338.39" gradientUnits="userSpaceOnUse">
<stop stop-color="#D4A555"/>
<stop offset="0.04" stop-color="#C5994F"/>
<stop offset="0.11" stop-color="#A07C40"/>
<stop offset="0.2" stop-color="#634D27"/>
<stop offset="0.32" stop-color="#100C06"/>
<stop offset="0.34"/>
<stop offset="0.36" stop-color="#0A0804"/>
<stop offset="0.49" stop-color="#5F4A26"/>
<stop offset="0.59" stop-color="#9E7B3F"/>
<stop offset="0.66" stop-color="#C5994F"/>
<stop offset="0.7" stop-color="#D4A555"/>
<stop offset="0.84" stop-color="#6B542B"/>
<stop offset="0.95" stop-color="#1E170C"/>
<stop offset="1"/>
</linearGradient>
<linearGradient id="paint3_linear_340_3486" x1="-13.5701" y1="271.77" x2="203.96" y2="324.241" gradientUnits="userSpaceOnUse">
<stop stop-color="#D4A555"/>
<stop offset="0.04" stop-color="#C5994F"/>
<stop offset="0.11" stop-color="#A07C40"/>
<stop offset="0.2" stop-color="#634D27"/>
<stop offset="0.32" stop-color="#100C06"/>
<stop offset="0.34"/>
<stop offset="0.36" stop-color="#0A0804"/>
<stop offset="0.49" stop-color="#5F4A26"/>
<stop offset="0.59" stop-color="#9E7B3F"/>
<stop offset="0.66" stop-color="#C5994F"/>
<stop offset="0.7" stop-color="#D4A555"/>
<stop offset="0.84" stop-color="#6B542B"/>
<stop offset="0.95" stop-color="#1E170C"/>
<stop offset="1"/>
</linearGradient>
<linearGradient id="paint4_linear_340_3486" x1="-13.2799" y1="270.59" x2="204.25" y2="323.061" gradientUnits="userSpaceOnUse">
<stop stop-color="#D4A555"/>
<stop offset="0.04" stop-color="#C5994F"/>
<stop offset="0.11" stop-color="#A07C40"/>
<stop offset="0.2" stop-color="#634D27"/>
<stop offset="0.32" stop-color="#100C06"/>
<stop offset="0.34"/>
<stop offset="0.36" stop-color="#0A0804"/>
<stop offset="0.49" stop-color="#5F4A26"/>
<stop offset="0.59" stop-color="#9E7B3F"/>
<stop offset="0.66" stop-color="#C5994F"/>
<stop offset="0.7" stop-color="#D4A555"/>
<stop offset="0.84" stop-color="#6B542B"/>
<stop offset="0.95" stop-color="#1E170C"/>
<stop offset="1"/>
</linearGradient>
<linearGradient id="paint5_linear_340_3486" x1="-13.0199" y1="269.51" x2="204.51" y2="321.981" gradientUnits="userSpaceOnUse">
<stop stop-color="#D4A555"/>
<stop offset="0.04" stop-color="#C5994F"/>
<stop offset="0.11" stop-color="#A07C40"/>
<stop offset="0.2" stop-color="#634D27"/>
<stop offset="0.32" stop-color="#100C06"/>
<stop offset="0.34"/>
<stop offset="0.36" stop-color="#0A0804"/>
<stop offset="0.49" stop-color="#5F4A26"/>
<stop offset="0.59" stop-color="#9E7B3F"/>
<stop offset="0.66" stop-color="#C5994F"/>
<stop offset="0.7" stop-color="#D4A555"/>
<stop offset="0.84" stop-color="#6B542B"/>
<stop offset="0.95" stop-color="#1E170C"/>
<stop offset="1"/>
</linearGradient>
<linearGradient id="paint6_linear_340_3486" x1="-12.7597" y1="268.44" x2="204.77" y2="320.9" gradientUnits="userSpaceOnUse">
<stop stop-color="#D4A555"/>
<stop offset="0.04" stop-color="#C5994F"/>
<stop offset="0.11" stop-color="#A07C40"/>
<stop offset="0.2" stop-color="#634D27"/>
<stop offset="0.32" stop-color="#100C06"/>
<stop offset="0.34"/>
<stop offset="0.36" stop-color="#0A0804"/>
<stop offset="0.49" stop-color="#5F4A26"/>
<stop offset="0.59" stop-color="#9E7B3F"/>
<stop offset="0.66" stop-color="#C5994F"/>
<stop offset="0.7" stop-color="#D4A555"/>
<stop offset="0.84" stop-color="#6B542B"/>
<stop offset="0.95" stop-color="#1E170C"/>
<stop offset="1"/>
</linearGradient>
<clipPath id="clip0_340_3486">
<rect width="224.31" height="304.38" fill="white" transform="translate(1 2)"/>
</clipPath>
</defs>
</svg>
