<svg width="100" height="100" viewBox="0 0 100 100" fill="none" xmlns="http://www.w3.org/2000/svg">
<g clip-path="url(#clip0_448_238)">
<path fill-rule="evenodd" clip-rule="evenodd" d="M67.8362 21.386C55.9586 20.8034 45.9877 28.3775 37.2219 44.8367C31.7928 55.0327 24.6424 58.2636 17.7171 56.6084C15.3866 56.0523 13.0694 54.94 10.858 53.3642C6.7002 50.3849 2.91313 45.7239 4.14548e-07 39.9241C1.84057 49.9876 6.48834 57.297 12.3808 60.9913C14.7908 62.5009 17.4126 63.4145 20.1271 63.6661C27.9131 64.3679 36.5201 59.6407 43.4189 48.0941C51.7213 34.2038 59.8119 24.3256 76.5359 29.3574C79.4755 30.2446 82.6799 31.582 86.2022 33.449C85.646 32.1911 85.0104 30.9596 84.3086 29.7414C73.4109 10.859 49.2716 4.39716 30.4025 15.2949C20.8818 20.7901 11.4274 32.35 12.0895 43.976C15.1086 32.5353 23.3448 23.1736 34.3087 18.7377C42.002 15.6259 50.3971 15.1757 58.2229 17.2944C61.6127 18.1418 64.8569 19.5322 67.8362 21.3992" fill="url(#paint0_linear_448_238)"/>
<path fill-rule="evenodd" clip-rule="evenodd" d="M32.177 77.6231C44.0413 78.2057 54.0254 70.6315 62.7781 54.1724C68.2071 43.9764 75.3707 40.7455 82.2828 42.4007C84.6265 42.9568 86.9306 44.0691 89.1419 45.6581C93.2997 48.6374 97.0868 53.2984 99.9999 59.0982C98.1594 49.0347 93.4983 41.7253 87.6191 38.031C85.2092 36.5214 82.5874 35.6078 79.8728 35.3562C72.0868 34.6544 63.4931 39.3816 56.5943 50.9282C48.2919 64.8185 40.2013 74.6967 23.4773 69.6649C20.5377 68.7777 17.3332 67.4403 13.811 65.5733C14.3671 66.8312 15.0027 68.0627 15.7045 69.2677C26.6023 88.1368 50.7283 94.6119 69.6107 83.7141C79.1313 78.2189 88.5858 66.6591 87.9237 55.0331C84.9046 66.4737 76.6684 75.8355 65.7044 80.2714C58.0244 83.3831 49.6293 83.8333 41.8035 81.7147C38.4137 80.8672 35.1695 79.4769 32.1902 77.6098" fill="url(#paint1_linear_448_238)"/>
</g>
<defs>
<linearGradient id="paint0_linear_448_238" x1="-12.0233" y1="65.4405" x2="96.8086" y2="1.86803" gradientUnits="userSpaceOnUse">
<stop stop-color="#2E3192"/>
<stop offset="1" stop-color="#F15A29"/>
</linearGradient>
<linearGradient id="paint1_linear_448_238" x1="5.65424" y1="95.6977" x2="114.486" y2="32.1385" gradientUnits="userSpaceOnUse">
<stop stop-color="#2E3192"/>
<stop offset="1" stop-color="#F15A29"/>
</linearGradient>
<clipPath id="clip0_448_238">
<rect width="100" height="100" fill="white"/>
</clipPath>
</defs>
</svg>
