<svg width="45" height="45" viewBox="0 0 45 45" fill="none" xmlns="http://www.w3.org/2000/svg">
<g clip-path="url(#clip0_362_6764)">
<path d="M42.3394 10.5205L34.4862 2.66737C32.7802 0.961336 30.4716 0 28.0615 0H16.9588C14.5487 0 12.2333 0.954566 10.5273 2.6606L2.66737 10.5138C0.961336 12.2198 0 14.5284 0 16.9452V28.048C0 30.4581 0.954566 32.7734 2.6606 34.4795L10.5138 42.3326C12.2198 44.0387 14.5284 45 16.9452 45H28.048C30.4581 45 32.7734 44.0454 34.4795 42.3394L42.3326 34.4862C44.0387 32.7802 45 30.4716 45 28.0548V16.952C45 14.5419 44.0454 12.2266 42.3394 10.5205Z" fill="white"/>
<path d="M22.655 37.996C22.4395 37.996 22.228 37.9397 22.0364 37.8311L9.78858 30.7047C9.40546 30.4835 9.17 30.0693 9.17 29.6229V15.3741C9.17 14.9277 9.40546 14.5175 9.78858 14.2923L22.0364 7.16589C22.4195 6.9447 22.8905 6.9447 23.2736 7.16589L35.5214 14.2923C35.9045 14.5135 36.14 14.9277 36.14 15.3741V29.6269C36.14 30.0693 35.9045 30.4835 35.5214 30.7087L23.2736 37.8351C23.082 37.9477 22.8705 38 22.655 38V37.996ZM11.0257 29.2649L22.655 36.0294L34.2843 29.2649V15.732L22.655 8.9676L11.0257 15.732V29.2649Z" fill="url(#paint0_linear_362_6764)"/>
<path d="M22.657 33.04C22.5124 33.04 22.3678 33.0034 22.2352 32.9263L13.9278 28.0802C13.6707 27.93 13.51 27.6459 13.51 27.3456V17.6533C13.51 17.353 13.6707 17.0689 13.9278 16.9187L22.2352 12.0726C22.4923 11.9224 22.8177 11.9224 23.0748 12.0726L31.3822 16.9187C31.6393 17.0689 31.8 17.353 31.8 17.6533V27.3456C31.8 27.6459 31.6393 27.93 31.3782 28.0802L23.0708 32.9263C22.9422 33.0034 22.7976 33.04 22.653 33.04H22.657ZM14.7714 27.102L22.657 31.7046L30.5426 27.102V17.9009L22.657 13.2983L14.7714 17.9009V27.102Z" fill="url(#paint1_linear_362_6764)"/>
<path d="M14.75 26.993L22.655 22.5L30.56 26.993L22.655 31.49L14.75 26.993Z" fill="url(#paint2_linear_362_6764)"/>
<path d="M11.03 15.6351L13.694 17.2301L22.81 11.9535V8.86011L11.03 15.6351Z" fill="url(#paint3_linear_362_6764)"/>
<path d="M31.6861 17.2301L34.28 15.6351L22.81 8.86011V11.9535L31.6861 17.2301Z" fill="url(#paint4_linear_362_6764)"/>
</g>
<defs>
<linearGradient id="paint0_linear_362_6764" x1="21.3221" y1="39.2145" x2="24.4545" y2="0.570195" gradientUnits="userSpaceOnUse">
<stop stop-color="#3F0059"/>
<stop offset="0.81" stop-color="#FFA4E4"/>
</linearGradient>
<linearGradient id="paint1_linear_362_6764" x1="22.657" y1="33.04" x2="22.657" y2="11.963" gradientUnits="userSpaceOnUse">
<stop stop-color="#3F0059"/>
<stop offset="0.81" stop-color="#FFA4E4"/>
</linearGradient>
<linearGradient id="paint2_linear_362_6764" x1="22.655" y1="31.49" x2="22.655" y2="22.5" gradientUnits="userSpaceOnUse">
<stop stop-color="#F89EDF"/>
<stop offset="0.2" stop-color="#CA76BD"/>
<stop offset="0.47" stop-color="#914694"/>
<stop offset="0.71" stop-color="#672276"/>
<stop offset="0.89" stop-color="#4E0D63"/>
<stop offset="1" stop-color="#45055D"/>
</linearGradient>
<linearGradient id="paint3_linear_362_6764" x1="16.92" y1="17.2301" x2="16.92" y2="8.86011" gradientUnits="userSpaceOnUse">
<stop stop-color="#F89EDF"/>
<stop offset="0.2" stop-color="#CA76BD"/>
<stop offset="0.47" stop-color="#914694"/>
<stop offset="0.71" stop-color="#672276"/>
<stop offset="0.89" stop-color="#4E0D63"/>
<stop offset="1" stop-color="#45055D"/>
</linearGradient>
<linearGradient id="paint4_linear_362_6764" x1="28.545" y1="17.2301" x2="28.545" y2="8.86011" gradientUnits="userSpaceOnUse">
<stop stop-color="#F89EDF"/>
<stop offset="0.2" stop-color="#CA76BD"/>
<stop offset="0.47" stop-color="#914694"/>
<stop offset="0.71" stop-color="#672276"/>
<stop offset="0.89" stop-color="#4E0D63"/>
<stop offset="1" stop-color="#45055D"/>
</linearGradient>
<clipPath id="clip0_362_6764">
<rect width="45" height="45" fill="white"/>
</clipPath>
</defs>
</svg>
