<svg width="40" height="40" viewBox="0 0 40 40" fill="none" xmlns="http://www.w3.org/2000/svg">
<g clip-path="url(#clip0_448_124)" filter="url(#filter0_d_448_124)">
<g clip-path="url(#clip1_448_124)">
<path d="M33.2263 9.01371L27.9908 3.77826C26.8535 2.64091 25.3144 2.00002 23.7077 2.00002H16.3059C14.6991 2.00002 13.1556 2.63639 12.0182 3.77375L6.77825 9.00919C5.64089 10.1465 5 11.6856 5 13.2968V20.6987C5 22.3054 5.63638 23.849 6.77373 24.9863L12.0092 30.2218C13.1465 31.3591 14.6856 32 16.2968 32H23.6987C25.3054 32 26.849 31.3636 27.9863 30.2263L33.2218 24.9908C34.3591 23.8535 35 22.3144 35 20.7032V13.3014C35 11.6946 34.3636 10.1511 33.2263 9.01371ZM32.274 20.0262C32.274 21.3396 31.7504 22.6033 30.8207 23.533L26.5375 27.8162C25.6078 28.7459 24.3441 29.2695 23.0307 29.2695H16.9738C15.6604 29.2695 14.3967 28.7459 13.467 27.8162L9.18384 23.533C8.2541 22.6033 7.73056 21.3396 7.73056 20.0262V13.9693C7.73056 12.6559 8.2541 11.3922 9.18384 10.4625L13.467 6.17934C14.3967 5.2496 15.6604 4.72606 16.9738 4.72606H23.0307C24.3441 4.72606 25.6078 5.2496 26.5375 6.17934L30.8207 10.4625C31.7504 11.3922 32.274 12.6559 32.274 13.9693V20.0262Z" fill="white"/>
<path fill-rule="evenodd" clip-rule="evenodd" d="M26.4698 10.652C25.9012 10.6611 25.0301 10.9635 20.8327 12.7101C19.3614 13.3239 16.4232 14.5876 12.0182 16.5058C11.3006 16.7901 10.926 17.07 10.8944 17.3408C10.8267 17.8643 11.5804 18.0268 12.5282 18.3337C13.3 18.5864 14.3381 18.8798 14.8751 18.8888C15.3671 18.8979 15.9132 18.6993 16.5135 18.2841C20.6296 15.5039 22.7554 14.1002 22.8863 14.0686C22.9811 14.0461 23.1119 14.019 23.1977 14.1002C23.288 14.1769 23.2789 14.3259 23.2699 14.3665C23.1932 14.6869 19.3298 18.2028 19.1041 18.433C18.2556 19.3176 17.2852 19.8547 18.7792 20.8386C20.07 21.6916 20.8237 22.2332 22.1506 23.1043C22.9991 23.6594 23.6671 24.3229 24.5427 24.2416C24.9443 24.2055 25.3641 23.8264 25.5762 22.6936C26.0772 20.0172 27.0611 14.2176 27.2868 11.83C27.3454 11.2252 27.1739 10.6385 26.4608 10.652H26.4698Z" fill="white"/>
</g>
</g>
<defs>
<filter id="filter0_d_448_124" x="0" y="1.52588e-05" width="40" height="40" filterUnits="userSpaceOnUse" color-interpolation-filters="sRGB">
<feFlood flood-opacity="0" result="BackgroundImageFix"/>
<feColorMatrix in="SourceAlpha" type="matrix" values="0 0 0 0 0 0 0 0 0 0 0 0 0 0 0 0 0 0 127 0" result="hardAlpha"/>
<feOffset dy="3"/>
<feGaussianBlur stdDeviation="2.5"/>
<feColorMatrix type="matrix" values="0 0 0 0 0 0 0 0 0 0 0 0 0 0 0 0 0 0 0.3 0"/>
<feBlend mode="normal" in2="BackgroundImageFix" result="effect1_dropShadow_448_124"/>
<feBlend mode="normal" in="SourceGraphic" in2="effect1_dropShadow_448_124" result="shape"/>
</filter>
<clipPath id="clip0_448_124">
<rect width="30" height="30" fill="white" transform="translate(5 2.00002)"/>
</clipPath>
<clipPath id="clip1_448_124">
<rect width="30" height="30" fill="white" transform="translate(5 2.00002)"/>
</clipPath>
</defs>
</svg>
